<svg xmlns="http://www.w3.org/2000/svg" width="24" height="23.998" viewBox="0 0 24 23.998">
  <g id="Group_3328" data-name="Group 3328" transform="translate(451.556 -164.416)">
    <path id="Path_2879" data-name="Path 2879" d="M-439.538,188.414A11.985,11.985,0,0,1-451.556,176.5a11.953,11.953,0,0,1,12.014-12.083,11.929,11.929,0,0,1,11.986,12.1A11.957,11.957,0,0,1-439.538,188.414Zm-.034-2.165a9.816,9.816,0,0,0,9.843-9.811,9.766,9.766,0,0,0-9.807-9.836,9.723,9.723,0,0,0-9.835,9.8A9.768,9.768,0,0,0-439.572,186.249Z" transform="translate(0)" fill="#fa5252"/>
    <g id="Group_3327" data-name="Group 3327" transform="translate(-441.163 168.925)">
      <path id="Path_2880" data-name="Path 2880" d="M-344.732,211.125q-.48,3.989-.956,7.979c-.036.306-.092.425-.509.436-.7.015-.737-.008-.824-.746q-.464-3.939-.9-7.882a1.361,1.361,0,0,1,1.005-1.5,1.739,1.739,0,0,1,1.914.529A1.65,1.65,0,0,1-344.732,211.125Z" transform="translate(347.94 -209.319)" fill="#fa5252"/>
      <path id="Path_2881" data-name="Path 2881" d="M-346.447,329.754a1.593,1.593,0,0,1-1.553-1.64,1.59,1.59,0,0,1,1.662-1.567A1.589,1.589,0,0,1-344.8,328.2,1.592,1.592,0,0,1-346.447,329.754Z" transform="translate(348 -314.774)" fill="#fa5252"/>
    </g>
  </g>
</svg>