<svg id="Group_4082" data-name="Group 4082" xmlns="http://www.w3.org/2000/svg" xmlns:xlink="http://www.w3.org/1999/xlink" width="166.477" height="105.844" viewBox="0 0 166.477 105.844">
  <defs>
    <clipPath id="clip-path">
      <rect id="Rectangle_2016" data-name="Rectangle 2016" width="2.113" height="2.113"/>
    </clipPath>
    <clipPath id="clip-path-5">
      <rect id="Rectangle_2020" data-name="Rectangle 2020" width="2.4" height="2.4"/>
    </clipPath>
    <clipPath id="clip-path-7">
      <rect id="Rectangle_2022" data-name="Rectangle 2022" width="1.786" height="1.786"/>
    </clipPath>
    <clipPath id="clip-path-35">
      <rect id="Rectangle_2051" data-name="Rectangle 2051" width="3.49" height="3.485"/>
    </clipPath>
    <clipPath id="clip-path-37">
      <rect id="Rectangle_2053" data-name="Rectangle 2053" width="4.112" height="2.81"/>
    </clipPath>
    <clipPath id="clip-path-38">
      <rect id="Rectangle_2054" data-name="Rectangle 2054" width="4.112" height="2.806"/>
    </clipPath>
    <clipPath id="clip-path-39">
      <rect id="Rectangle_2055" data-name="Rectangle 2055" width="2.718" height="2.718"/>
    </clipPath>
    <clipPath id="clip-path-40">
      <path id="Path_3191" data-name="Path 3191" d="M407.85,931.529A49.729,49.729,0,1,0,457.579,881.8a49.731,49.731,0,0,0-49.729,49.729" transform="translate(-407.85 -881.8)"/>
    </clipPath>
    <clipPath id="clip-path-61">
      <rect id="Rectangle_2061" data-name="Rectangle 2061" width="28.901" height="52.195"/>
    </clipPath>
    <clipPath id="clip-path-62">
      <rect id="Rectangle_2062" data-name="Rectangle 2062" width="36.882" height="50.025"/>
    </clipPath>
    <clipPath id="clip-path-63">
      <rect id="Rectangle_2072" data-name="Rectangle 2072" width="12.899" height="1.394"/>
    </clipPath>
  </defs>
  <g id="Group_4022" data-name="Group 4022">
    <path id="Path_2925" data-name="Path 2925" d="M397.354,896.793V880.7h-9.292v16.093a15.128,15.128,0,0,0-1.5,28.221h12.294a15.13,15.13,0,0,0-1.5-28.221" transform="translate(-374.901 -875.581)" fill="#fff"/>
    <path id="Path_2926" data-name="Path 2926" d="M398.547,924.937l-12.468-.026a15.4,15.4,0,0,1,1.333-28.674V880.07h9.854v16.167a15.4,15.4,0,0,1,1.333,28.674Zm-12.294-.562h12.172a14.845,14.845,0,0,0-1.525-27.668l-.2-.061V880.632h-8.735v16.014l-.2.061a14.843,14.843,0,0,0-1.52,27.668" transform="translate(-374.534 -875.226)" fill="#f68e24"/>
    <path id="Path_2927" data-name="Path 2927" d="M386.668,924.569h14.559a14.155,14.155,0,0,0-2.927-25.62l-.667-.218V882.9h-7.371v15.831l-.667.218a14.155,14.155,0,0,0-2.928,25.62" transform="translate(-376.142 -876.823)" fill="#fff"/>
    <path id="Path_2928" data-name="Path 2928" d="M400.944,924.487H386.228l-.065-.039a14.438,14.438,0,0,1,2.984-26.13l.471-.152V882.26h7.933v15.905l.475.152a14.438,14.438,0,0,1,2.984,26.13Zm-14.559-.558h14.4a13.875,13.875,0,0,0-2.936-25.071l-.863-.279V882.826h-6.809v15.753l-.863.279a13.873,13.873,0,0,0-2.932,25.071" transform="translate(-375.781 -876.462)" fill="#f68e24"/>
    <path id="Path_2929" data-name="Path 2929" d="M379.79,944.307a14.177,14.177,0,0,0,6.883,12.137h14.559a14.129,14.129,0,0,0,6-17.064H380.674a14.17,14.17,0,0,0-.884,4.927" transform="translate(-376.148 -908.698)" fill="#fff"/>
    <path id="Path_2930" data-name="Path 2930" d="M400.944,956.356H386.228l-.065-.039a14.413,14.413,0,0,1-6.116-17.4l.07-.183h26.945l.07.183a14.413,14.413,0,0,1-6.116,17.4Zm-14.559-.558h14.4a13.849,13.849,0,0,0,5.877-16.507H380.5a13.822,13.822,0,0,0-.806,4.648,13.975,13.975,0,0,0,6.687,11.858" transform="translate(-375.781 -908.331)" fill="#f68e24"/>
    <path id="Path_2931" data-name="Path 2931" d="M410.483,881.159v-.736a1.476,1.476,0,0,0-1.473-1.472h-9.318a1.476,1.476,0,0,0-1.472,1.472v.736Z" transform="translate(-386.549 -874.594)" fill="#fff"/>
    <path id="Path_2932" data-name="Path 2932" d="M410.411,881.076H397.59v-1.015a1.751,1.751,0,0,1,1.751-1.751h9.318a1.751,1.751,0,0,1,1.751,1.751Zm-12.259-.562h11.7v-.453a1.191,1.191,0,0,0-1.189-1.189h-9.318a1.191,1.191,0,0,0-1.189,1.189Z" transform="translate(-386.194 -874.232)" fill="#f68e24"/>
    <g id="Group_3907" data-name="Group 3907" transform="translate(10.756 33.85)">
      <g id="Group_3906" data-name="Group 3906">
        <g id="Group_3904" data-name="Group 3904" clip-path="url(#clip-path)">
          <path id="Path_2933" data-name="Path 2933" d="M398.321,948.075a.775.775,0,1,1-.776-.775.777.777,0,0,1,.776.775" transform="translate(-396.487 -947.017)" fill="#fff"/>
        </g>
        <g id="Group_3905" data-name="Group 3905" clip-path="url(#clip-path)">
          <path id="Path_2934" data-name="Path 2934" d="M397.179,948.763a1.056,1.056,0,1,1,1.059-1.059,1.06,1.06,0,0,1-1.059,1.059m0-1.551a.5.5,0,1,0,.5.5.5.5,0,0,0-.5-.5" transform="translate(-396.12 -946.65)" fill="#ef4c2e"/>
        </g>
      </g>
    </g>
    <g id="Group_3911" data-name="Group 3911" transform="translate(9.928 38.511)">
      <g id="Group_3910" data-name="Group 3910">
        <g id="Group_3908" data-name="Group 3908" clip-path="url(#clip-path)">
          <path id="Path_2935" data-name="Path 2935" d="M396.411,958.776a.775.775,0,1,1-.775-.776.777.777,0,0,1,.775.776" transform="translate(-394.581 -957.717)" fill="#fff"/>
        </g>
        <g id="Group_3909" data-name="Group 3909" clip-path="url(#clip-path)">
          <path id="Path_2936" data-name="Path 2936" d="M395.269,959.463a1.056,1.056,0,1,1,1.054-1.059,1.06,1.06,0,0,1-1.054,1.059m0-1.551a.5.5,0,1,0,.5.5.5.5,0,0,0-.5-.5" transform="translate(-394.214 -957.35)" fill="#f68e24"/>
        </g>
      </g>
    </g>
    <g id="Group_3915" data-name="Group 3915" transform="translate(14.524 32.216)">
      <g id="Group_3914" data-name="Group 3914">
        <g id="Group_3912" data-name="Group 3912" clip-path="url(#clip-path-5)">
          <path id="Path_2937" data-name="Path 2937" d="M407.248,944.459a.919.919,0,1,1-.919-.919.919.919,0,0,1,.919.919" transform="translate(-405.131 -943.261)" fill="#fff"/>
        </g>
        <g id="Group_3913" data-name="Group 3913" clip-path="url(#clip-path-5)">
          <path id="Path_2938" data-name="Path 2938" d="M405.968,945.3a1.2,1.2,0,1,1,1.2-1.2,1.2,1.2,0,0,1-1.2,1.2m0-1.843a.64.64,0,1,0,.64.64.641.641,0,0,0-.64-.64" transform="translate(-404.77 -942.9)" fill="#ef4c2e"/>
        </g>
      </g>
    </g>
    <g id="Group_3919" data-name="Group 3919" transform="translate(17.356 36.172)">
      <g id="Group_3918" data-name="Group 3918">
        <g id="Group_3916" data-name="Group 3916" clip-path="url(#clip-path-7)">
          <path id="Path_2939" data-name="Path 2939" d="M413.128,953.234a.614.614,0,1,1-.614-.614.613.613,0,0,1,.614.614" transform="translate(-411.626 -952.341)" fill="#fff"/>
        </g>
        <g id="Group_3917" data-name="Group 3917" clip-path="url(#clip-path-7)">
          <path id="Path_2940" data-name="Path 2940" d="M412.163,953.766a.893.893,0,1,1,.893-.893.894.894,0,0,1-.893.893m0-1.229a.335.335,0,1,0,.331.335.332.332,0,0,0-.331-.335" transform="translate(-411.27 -951.98)" fill="#ef4c2e"/>
        </g>
      </g>
    </g>
    <g id="Group_3923" data-name="Group 3923" transform="translate(19.199 42.38)">
      <g id="Group_3922" data-name="Group 3922">
        <g id="Group_3920" data-name="Group 3920" clip-path="url(#clip-path-7)">
          <path id="Path_2941" data-name="Path 2941" d="M417.359,967.484a.614.614,0,1,1-.614-.614.614.614,0,0,1,.614.614" transform="translate(-415.856 -966.591)" fill="#fff"/>
        </g>
        <g id="Group_3921" data-name="Group 3921" clip-path="url(#clip-path-7)">
          <path id="Path_2942" data-name="Path 2942" d="M416.393,968.016a.893.893,0,1,1,.893-.893.894.894,0,0,1-.893.893m0-1.224a.333.333,0,1,0,.331.335.332.332,0,0,0-.331-.335" transform="translate(-415.5 -966.23)" fill="#ef4c2e"/>
        </g>
      </g>
    </g>
    <g id="Group_3927" data-name="Group 3927" transform="translate(25.498 33.296)">
      <g id="Group_3926" data-name="Group 3926">
        <g id="Group_3924" data-name="Group 3924" clip-path="url(#clip-path-5)">
          <path id="Path_2943" data-name="Path 2943" d="M432.448,946.939a.919.919,0,1,1-.919-.919.917.917,0,0,1,.919.919" transform="translate(-430.327 -945.741)" fill="#fff"/>
        </g>
        <g id="Group_3925" data-name="Group 3925" clip-path="url(#clip-path-5)">
          <path id="Path_2944" data-name="Path 2944" d="M431.168,947.78a1.2,1.2,0,1,1,1.2-1.2,1.2,1.2,0,0,1-1.2,1.2m0-1.838a.64.64,0,1,0,.64.64.641.641,0,0,0-.64-.64" transform="translate(-429.966 -945.38)" fill="#ef4c2e"/>
        </g>
      </g>
    </g>
    <g id="Group_3931" data-name="Group 3931" transform="translate(18.837 37.13)">
      <g id="Group_3930" data-name="Group 3930">
        <g id="Group_3928" data-name="Group 3928" clip-path="url(#clip-path-7)">
          <path id="Path_2945" data-name="Path 2945" d="M416.539,955.434a.614.614,0,1,1-.614-.614.614.614,0,0,1,.614.614" transform="translate(-415.031 -954.541)" fill="#fff"/>
        </g>
        <g id="Group_3929" data-name="Group 3929" clip-path="url(#clip-path-7)">
          <path id="Path_2946" data-name="Path 2946" d="M415.563,955.966a.893.893,0,1,1,.893-.893.894.894,0,0,1-.893.893m0-1.224a.335.335,0,1,0,.331.335.332.332,0,0,0-.331-.335" transform="translate(-414.67 -954.18)" fill="#ef4c2e"/>
        </g>
      </g>
    </g>
    <g id="Group_3935" data-name="Group 3935" transform="translate(13.109 44.301)">
      <g id="Group_3934" data-name="Group 3934">
        <g id="Group_3932" data-name="Group 3932" clip-path="url(#clip-path-7)">
          <path id="Path_2947" data-name="Path 2947" d="M403.379,971.9a.614.614,0,1,1-.614-.614.614.614,0,0,1,.614.614" transform="translate(-401.876 -971.007)" fill="#fff"/>
        </g>
        <g id="Group_3933" data-name="Group 3933" clip-path="url(#clip-path-7)">
          <path id="Path_2948" data-name="Path 2948" d="M402.413,972.436a.893.893,0,1,1,.893-.893.894.894,0,0,1-.893.893m0-1.229a.332.332,0,0,0-.331.335.331.331,0,0,0,.662,0,.335.335,0,0,0-.331-.335" transform="translate(-401.52 -970.646)" fill="#f68e24"/>
        </g>
      </g>
    </g>
    <g id="Group_3939" data-name="Group 3939" transform="translate(5.537 34.769)">
      <g id="Group_3938" data-name="Group 3938">
        <g id="Group_3936" data-name="Group 3936" clip-path="url(#clip-path-7)">
          <path id="Path_2949" data-name="Path 2949" d="M386,950.014a.612.612,0,1,1-.61-.614.612.612,0,0,1,.61.614" transform="translate(-384.501 -949.121)" fill="#fff"/>
        </g>
        <g id="Group_3937" data-name="Group 3937" clip-path="url(#clip-path-7)">
          <path id="Path_2950" data-name="Path 2950" d="M385.033,950.546a.893.893,0,1,1,.893-.893.894.894,0,0,1-.893.893m0-1.224a.331.331,0,1,0,0,.662.331.331,0,1,0,0-.662" transform="translate(-384.14 -948.76)" fill="#f68e24"/>
        </g>
      </g>
    </g>
    <g id="Group_3943" data-name="Group 3943" transform="translate(20.933 43.547)">
      <g id="Group_3942" data-name="Group 3942">
        <g id="Group_3940" data-name="Group 3940" clip-path="url(#clip-path)">
          <path id="Path_2951" data-name="Path 2951" d="M421.681,970.325a.775.775,0,1,1-.775-.775.781.781,0,0,1,.775.775" transform="translate(-419.847 -969.271)" fill="#fff"/>
        </g>
        <g id="Group_3941" data-name="Group 3941" clip-path="url(#clip-path)">
          <path id="Path_2952" data-name="Path 2952" d="M420.539,971.023a1.056,1.056,0,1,1,1.054-1.059,1.06,1.06,0,0,1-1.054,1.059m0-1.555a.5.5,0,1,0,.5.5.5.5,0,0,0-.5-.5" transform="translate(-419.48 -968.91)" fill="#ef4c2e"/>
        </g>
      </g>
    </g>
    <g id="Group_3947" data-name="Group 3947" transform="translate(25.102 39.539)">
      <g id="Group_3946" data-name="Group 3946">
        <g id="Group_3944" data-name="Group 3944" clip-path="url(#clip-path)">
          <path id="Path_2953" data-name="Path 2953" d="M431.241,961.125a.775.775,0,1,1-.775-.776.777.777,0,0,1,.775.776" transform="translate(-429.411 -960.071)" fill="#fff"/>
        </g>
        <g id="Group_3945" data-name="Group 3945" clip-path="url(#clip-path)">
          <path id="Path_2954" data-name="Path 2954" d="M430.1,961.817a1.059,1.059,0,1,1,1.054-1.059,1.06,1.06,0,0,1-1.054,1.059m0-1.551a.5.5,0,1,0,.5.5.5.5,0,0,0-.5-.5" transform="translate(-429.044 -959.704)" fill="#ef4c2e"/>
        </g>
      </g>
    </g>
    <path id="Path_2955" data-name="Path 2955" d="M438.8,894.99v33.832a4.742,4.742,0,1,0,9.48,0V894.99Z" transform="translate(-409.451 -883.646)" fill="#fff"/>
    <path id="Path_2956" data-name="Path 2956" d="M443.179,933.65a5.11,5.11,0,0,1-5.019-5.184V894.35H448.2v34.115a5.111,5.111,0,0,1-5.023,5.184m-4.461-38.738v33.553a4.464,4.464,0,1,0,8.922,0V894.912Z" transform="translate(-409.089 -883.284)" fill="#f68e24"/>
    <path id="Path_2957" data-name="Path 2957" d="M448.491,894.99H440.48v33.832a4.007,4.007,0,1,0,8.007,0V894.99Z" transform="translate(-410.399 -883.646)" fill="#fff"/>
    <path id="Path_2958" data-name="Path 2958" d="M444.132,932.913a4.373,4.373,0,0,1-4.282-4.448V894.35h8.569v34.115a4.376,4.376,0,0,1-4.287,4.448m-3.725-38v33.553a3.728,3.728,0,1,0,7.45,0V894.912Z" transform="translate(-410.043 -883.284)" fill="#f68e24"/>
    <path id="Path_2959" data-name="Path 2959" d="M440.49,917.5v24.026a4.007,4.007,0,1,0,8.007,0V917.5Z" transform="translate(-410.404 -896.349)" fill="#fff"/>
    <path id="Path_2960" data-name="Path 2960" d="M444.132,945.617a4.372,4.372,0,0,1-4.282-4.448V916.86h8.569v24.309a4.376,4.376,0,0,1-4.287,4.448m-3.725-28.195v23.747a3.728,3.728,0,1,0,7.45,0V917.422Z" transform="translate(-410.043 -895.988)" fill="#ef4c2e"/>
    <path id="Path_2961" data-name="Path 2961" d="M447.863,893.629v-.736a1.476,1.476,0,0,0-1.472-1.473h-9.318a1.476,1.476,0,0,0-1.473,1.473v.736Z" transform="translate(-407.645 -881.631)" fill="#fff"/>
    <path id="Path_2962" data-name="Path 2962" d="M447.791,893.546H434.97v-1.015a1.751,1.751,0,0,1,1.751-1.751h9.318a1.751,1.751,0,0,1,1.751,1.751Zm-12.259-.558h11.7v-.453a1.191,1.191,0,0,0-1.189-1.189h-9.318a1.191,1.191,0,0,0-1.189,1.189Z" transform="translate(-407.289 -881.27)" fill="#f68e24"/>
    <g id="Group_3951" data-name="Group 3951" transform="translate(31.471 24.061)">
      <g id="Group_3950" data-name="Group 3950">
        <g id="Group_3948" data-name="Group 3948" clip-path="url(#clip-path)">
          <path id="Path_2963" data-name="Path 2963" d="M445.871,925.6a.775.775,0,1,1-.775-.776.777.777,0,0,1,.775.776" transform="translate(-444.037 -924.541)" fill="#fff"/>
        </g>
        <g id="Group_3949" data-name="Group 3949" clip-path="url(#clip-path)">
          <path id="Path_2964" data-name="Path 2964" d="M444.729,926.293a1.056,1.056,0,1,1,1.054-1.054,1.059,1.059,0,0,1-1.054,1.054m0-1.551a.5.5,0,1,0,.5.5.5.5,0,0,0-.5-.5" transform="translate(-443.67 -924.18)" fill="#ef4c2e"/>
        </g>
      </g>
    </g>
    <g id="Group_3955" data-name="Group 3955" transform="translate(34.455 25.777)">
      <g id="Group_3954" data-name="Group 3954">
        <g id="Group_3952" data-name="Group 3952" clip-path="url(#clip-path-7)">
          <path id="Path_2965" data-name="Path 2965" d="M452.389,929.374a.614.614,0,1,1-.614-.614.614.614,0,0,1,.614.614" transform="translate(-450.881 -928.481)" fill="#fff"/>
        </g>
        <g id="Group_3953" data-name="Group 3953" clip-path="url(#clip-path-7)">
          <path id="Path_2966" data-name="Path 2966" d="M451.413,929.906a.893.893,0,1,1,.893-.893.894.894,0,0,1-.893.893m0-1.229a.331.331,0,0,0-.331.331.331.331,0,1,0,.662,0,.331.331,0,0,0-.331-.331" transform="translate(-450.52 -928.12)" fill="#ef4c2e"/>
        </g>
      </g>
    </g>
    <g id="Group_3959" data-name="Group 3959" transform="translate(34.089 27.982)">
      <g id="Group_3958" data-name="Group 3958">
        <g id="Group_3956" data-name="Group 3956" clip-path="url(#clip-path-7)">
          <path id="Path_2967" data-name="Path 2967" d="M451.539,934.434a.614.614,0,1,1-.614-.614.614.614,0,0,1,.614.614" transform="translate(-450.036 -933.541)" fill="#fff"/>
        </g>
        <g id="Group_3957" data-name="Group 3957" clip-path="url(#clip-path-7)">
          <path id="Path_2968" data-name="Path 2968" d="M450.573,934.966a.893.893,0,1,1,.893-.893.894.894,0,0,1-.893.893m0-1.224a.331.331,0,1,0,.331.331.331.331,0,0,0-.331-.331" transform="translate(-449.68 -933.18)" fill="#ef4c2e"/>
        </g>
      </g>
    </g>
    <g id="Group_3963" data-name="Group 3963" transform="translate(32.003 37.095)">
      <g id="Group_3962" data-name="Group 3962">
        <g id="Group_3960" data-name="Group 3960" clip-path="url(#clip-path)">
          <path id="Path_2969" data-name="Path 2969" d="M447.091,955.515a.775.775,0,1,1-.776-.775.778.778,0,0,1,.776.775" transform="translate(-445.257 -954.461)" fill="#fff"/>
        </g>
        <g id="Group_3961" data-name="Group 3961" clip-path="url(#clip-path)">
          <path id="Path_2970" data-name="Path 2970" d="M445.954,956.213a1.057,1.057,0,1,1,1.059-1.059,1.056,1.056,0,0,1-1.059,1.059m0-1.551a.5.5,0,1,0,.5.5.5.5,0,0,0-.5-.5" transform="translate(-444.896 -954.1)" fill="#ef4c2e"/>
        </g>
      </g>
    </g>
    <g id="Group_3967" data-name="Group 3967" transform="translate(33.514 38.772)">
      <g id="Group_3966" data-name="Group 3966">
        <g id="Group_3964" data-name="Group 3964" clip-path="url(#clip-path-5)">
          <path id="Path_2971" data-name="Path 2971" d="M450.848,959.509a.919.919,0,1,1-.919-.919.919.919,0,0,1,.919.919" transform="translate(-448.727 -958.311)" fill="#fff"/>
        </g>
        <g id="Group_3965" data-name="Group 3965" clip-path="url(#clip-path-5)">
          <path id="Path_2972" data-name="Path 2972" d="M449.568,960.351a1.2,1.2,0,1,1,1.2-1.2,1.2,1.2,0,0,1-1.2,1.2m0-1.843a.638.638,0,1,0,.64.636.641.641,0,0,0-.64-.636" transform="translate(-448.366 -957.95)" fill="#ef4c2e"/>
        </g>
      </g>
    </g>
    <g id="Group_3971" data-name="Group 3971" transform="translate(34.865 34.111)">
      <g id="Group_3970" data-name="Group 3970">
        <g id="Group_3968" data-name="Group 3968" clip-path="url(#clip-path-7)">
          <path id="Path_2973" data-name="Path 2973" d="M453.324,948.5a.612.612,0,1,1-.614-.614.614.614,0,0,1,.614.614" transform="translate(-451.821 -947.611)" fill="#fff"/>
        </g>
        <g id="Group_3969" data-name="Group 3969" clip-path="url(#clip-path-7)">
          <path id="Path_2974" data-name="Path 2974" d="M452.353,949.036a.893.893,0,1,1,.893-.893.894.894,0,0,1-.893.893m0-1.224a.333.333,0,1,0,.331.335.332.332,0,0,0-.331-.335" transform="translate(-451.46 -947.25)" fill="#ef4c2e"/>
        </g>
      </g>
    </g>
    <path id="Path_2975" data-name="Path 2975" d="M571.906,898.814a2.453,2.453,0,0,1-3.372-.78l-5.833-9.345a2.453,2.453,0,0,1,.78-3.372l24.609-15.356a2.453,2.453,0,0,1,3.372.78l5.833,9.344a2.453,2.453,0,0,1-.78,3.372Z" transform="translate(-479.166 -869.312)" fill="#fff"/>
    <path id="Path_2976" data-name="Path 2976" d="M570.25,899.1a2.719,2.719,0,0,1-2.322-1.281l-5.833-9.344a2.732,2.732,0,0,1,.871-3.76l24.61-15.356a2.739,2.739,0,0,1,3.76.871l5.833,9.345a2.736,2.736,0,0,1-.871,3.76l-24.61,15.357a2.7,2.7,0,0,1-1.438.41m18.763-29.589a2.157,2.157,0,0,0-1.141.327L563.262,885.2a2.173,2.173,0,0,0-.693,2.989l5.829,9.345a2.174,2.174,0,0,0,2.989.693L596,882.864a2.175,2.175,0,0,0,.693-2.988l-5.829-9.345a2.161,2.161,0,0,0-1.847-1.02" transform="translate(-478.799 -868.95)" fill="#f68e24"/>
    <path id="Path_2977" data-name="Path 2977" d="M620.9,879.719a2.511,2.511,0,1,1,.8-3.459,2.509,2.509,0,0,1-.8,3.459" transform="translate(-510.051 -872.408)" fill="#fff"/>
    <path id="Path_2978" data-name="Path 2978" d="M619.213,880.015a2.794,2.794,0,0,1-1.481-5.162,2.792,2.792,0,0,1,2.954,4.74,2.743,2.743,0,0,1-1.472.423m0-5.019a2.211,2.211,0,0,0-1.176.34,2.229,2.229,0,1,0,2.361,3.781,2.231,2.231,0,0,0,.714-3.071,2.238,2.238,0,0,0-1.9-1.05" transform="translate(-509.692 -872.043)" fill="#f68e24"/>
    <path id="Path_2979" data-name="Path 2979" d="M621.443,880.038a1.805,1.805,0,1,1,.575-2.483,1.807,1.807,0,0,1-.575,2.483" transform="translate(-510.968 -873.325)" fill="#fff"/>
    <path id="Path_2980" data-name="Path 2980" d="M620.124,880.239a2.077,2.077,0,1,1,1.1-.309,2.137,2.137,0,0,1-1.1.309m0-3.616a1.527,1.527,0,0,0-1.294,2.335,1.563,1.563,0,0,0,2.1.488,1.527,1.527,0,0,0-.81-2.823" transform="translate(-510.603 -872.968)" fill="#f68e24"/>
    <path id="Path_2981" data-name="Path 2981" d="M622.322,878.565c-.013-.022-.03-.043-.044-.065l-3.058,1.908c.013.022.026.048.039.065a1.8,1.8,0,0,0,3.063-1.908" transform="translate(-511.272 -874.34)" fill="#fff"/>
    <path id="Path_2982" data-name="Path 2982" d="M620.33,881.125h0a2.075,2.075,0,0,1-1.773-.98l-.157-.3.209-.157,3.285-2.052.2.3a2.089,2.089,0,0,1-.667,2.871,2.067,2.067,0,0,1-1.1.318m-1.172-1.12a1.5,1.5,0,0,0,1.172.558h0a1.526,1.526,0,0,0,1.39-2.152Z" transform="translate(-510.809 -873.854)" fill="#f68e24"/>
    <path id="Path_2983" data-name="Path 2983" d="M620.341,879.96a1.157,1.157,0,1,1,1.594.37,1.155,1.155,0,0,1-1.594-.37" transform="translate(-511.805 -874.166)" fill="#fff"/>
    <path id="Path_2984" data-name="Path 2984" d="M620.969,880.436a1.432,1.432,0,0,1-1.4-1.76,1.414,1.414,0,0,1,.64-.893,1.472,1.472,0,0,1,1.978.458,1.438,1.438,0,0,1-1.22,2.2m0-2.309a.867.867,0,0,0-.849.675.885.885,0,0,0,.109.662.9.9,0,0,0,1.207.279.855.855,0,0,0,.388-.545.884.884,0,0,0-.109-.662.873.873,0,0,0-.745-.41" transform="translate(-511.447 -873.819)" fill="#f68e24"/>
    <path id="Path_2985" data-name="Path 2985" d="M630.127,894.5a2.511,2.511,0,1,1,.8-3.463,2.513,2.513,0,0,1-.8,3.463" transform="translate(-515.26 -880.747)" fill="#fff"/>
    <path id="Path_2986" data-name="Path 2986" d="M628.433,894.8a2.79,2.79,0,1,1,1.477-.422,2.81,2.81,0,0,1-1.477.422m0-5.019a2.23,2.23,0,1,0,1.9,1.05,2.212,2.212,0,0,0-1.9-1.05" transform="translate(-514.895 -880.39)" fill="#f68e24"/>
    <path id="Path_2987" data-name="Path 2987" d="M630.663,894.818a1.805,1.805,0,1,1,.575-2.488,1.806,1.806,0,0,1-.575,2.488" transform="translate(-516.171 -881.666)" fill="#fff"/>
    <path id="Path_2988" data-name="Path 2988" d="M629.343,895.013a2.09,2.09,0,1,1,1.1-.318,2.1,2.1,0,0,1-1.1.318m0-3.616a1.524,1.524,0,0,0-1.294,2.331,1.562,1.562,0,0,0,2.1.488,1.524,1.524,0,0,0-.81-2.819" transform="translate(-515.805 -881.304)" fill="#f68e24"/>
    <path id="Path_2989" data-name="Path 2989" d="M631.542,893.351c-.013-.022-.03-.039-.044-.061L628.44,895.2c.013.022.022.043.035.065a1.807,1.807,0,0,0,3.067-1.912" transform="translate(-516.475 -882.686)" fill="#fff"/>
    <path id="Path_2990" data-name="Path 2990" d="M629.561,895.9h0a2.07,2.07,0,0,1-1.773-.984l-.148-.235.2-.213,3.285-2.048.2.292a2.083,2.083,0,0,1-1.769,3.189m-1.172-1.115a1.5,1.5,0,0,0,1.167.553,1.525,1.525,0,0,0,1.39-2.152Z" transform="translate(-516.023 -882.195)" fill="#f68e24"/>
    <path id="Path_2991" data-name="Path 2991" d="M629.565,894.736a1.159,1.159,0,1,1,1.594.366,1.163,1.163,0,0,1-1.594-.366" transform="translate(-517.012 -882.503)" fill="#fff"/>
    <path id="Path_2992" data-name="Path 2992" d="M630.188,895.211a1.438,1.438,0,0,1-.758-2.657,1.472,1.472,0,0,1,1.978.458,1.438,1.438,0,0,1-.457,1.978,1.4,1.4,0,0,1-.762.222m0-2.313a.914.914,0,0,0-.462.131.856.856,0,0,0-.388.545.871.871,0,0,0,.109.658.892.892,0,0,0,1.207.279.876.876,0,0,0,.279-1.207.889.889,0,0,0-.745-.405" transform="translate(-516.651 -882.154)" fill="#f68e24"/>
    <path id="Path_2993" data-name="Path 2993" d="M608.624,887.389a2.511,2.511,0,1,1,.8-3.459,2.513,2.513,0,0,1-.8,3.459" transform="translate(-503.124 -876.737)" fill="#fff"/>
    <path id="Path_2994" data-name="Path 2994" d="M606.94,887.681a2.79,2.79,0,1,1,1.473-.423,2.782,2.782,0,0,1-1.473.423m-.009-5.019a2.23,2.23,0,1,0,1.185,4.121,2.23,2.23,0,0,0-1.185-4.121" transform="translate(-502.764 -876.371)" fill="#f68e24"/>
    <path id="Path_2995" data-name="Path 2995" d="M609.163,887.7a1.805,1.805,0,1,1,.575-2.488,1.806,1.806,0,0,1-.575,2.488" transform="translate(-504.037 -877.648)" fill="#fff"/>
    <path id="Path_2996" data-name="Path 2996" d="M607.843,887.889a2.086,2.086,0,0,1-1.107-3.855,2.1,2.1,0,0,1,1.1-.314,2.085,2.085,0,1,1,0,4.169m0-3.612a1.524,1.524,0,0,0-1.294,2.331,1.562,1.562,0,0,0,2.1.488,1.526,1.526,0,0,0-.81-2.819" transform="translate(-503.671 -877.286)" fill="#f68e24"/>
    <path id="Path_2997" data-name="Path 2997" d="M610.052,886.231c-.013-.022-.031-.039-.043-.061l-3.058,1.908a.539.539,0,0,0,.039.065,1.805,1.805,0,1,0,3.063-1.912" transform="translate(-504.347 -878.668)" fill="#fff"/>
    <path id="Path_2998" data-name="Path 2998" d="M608.061,888.775h0a2.076,2.076,0,0,1-1.773-.98l-.148-.24.2-.213,3.289-2.052.2.3a2.083,2.083,0,0,1-1.769,3.189m-1.167-1.115a1.514,1.514,0,0,0,1.978.327,1.53,1.53,0,0,0,.584-1.921Z" transform="translate(-503.89 -878.172)" fill="#f68e24"/>
    <path id="Path_2999" data-name="Path 2999" d="M608.075,887.62a1.157,1.157,0,1,1,1.594.37,1.163,1.163,0,0,1-1.594-.37" transform="translate(-504.884 -878.489)" fill="#fff"/>
    <path id="Path_3000" data-name="Path 3000" d="M608.688,888.1a1.437,1.437,0,0,1-.758-2.657,1.471,1.471,0,0,1,1.978.457,1.442,1.442,0,0,1-1.22,2.2m0-2.313a.873.873,0,0,0-.462.131.856.856,0,0,0-.388.545.882.882,0,0,0,.109.662.9.9,0,0,0,1.207.279.876.876,0,0,0,.279-1.207.863.863,0,0,0-.745-.41" transform="translate(-504.517 -878.142)" fill="#f68e24"/>
    <path id="Path_3001" data-name="Path 3001" d="M617.847,902.159a2.511,2.511,0,1,1,.8-3.459,2.513,2.513,0,0,1-.8,3.459" transform="translate(-508.33 -885.073)" fill="#fff"/>
    <path id="Path_3002" data-name="Path 3002" d="M616.153,902.461a2.79,2.79,0,1,1,1.472-.423,2.777,2.777,0,0,1-1.472.423m0-5.019a2.223,2.223,0,1,0,1.9,1.046,2.238,2.238,0,0,0-1.9-1.046" transform="translate(-507.965 -884.712)" fill="#f68e24"/>
    <path id="Path_3003" data-name="Path 3003" d="M618.383,902.478a1.805,1.805,0,1,1,.575-2.487,1.806,1.806,0,0,1-.575,2.487" transform="translate(-509.241 -885.989)" fill="#fff"/>
    <path id="Path_3004" data-name="Path 3004" d="M617.063,902.664a2.086,2.086,0,0,1-1.106-3.856,2.1,2.1,0,0,1,1.1-.318,2.087,2.087,0,0,1,0,4.173m0-3.612a1.524,1.524,0,0,0-1.294,2.331,1.559,1.559,0,0,0,2.1.488,1.524,1.524,0,0,0-.81-2.819" transform="translate(-508.875 -885.621)" fill="#f68e24"/>
    <path id="Path_3005" data-name="Path 3005" d="M619.262,901.005c-.013-.022-.03-.044-.044-.065l-3.058,1.908a.479.479,0,0,1,.035.065,1.806,1.806,0,0,0,3.067-1.908" transform="translate(-509.545 -887.004)" fill="#fff"/>
    <path id="Path_3006" data-name="Path 3006" d="M617.281,903.56h0a2.079,2.079,0,0,1-1.773-.985l-.148-.24.2-.214,3.289-2.052.2.3a2.084,2.084,0,0,1-.667,2.871,2.119,2.119,0,0,1-1.106.318m-1.176-1.115a1.519,1.519,0,0,0,1.176.553h0a1.527,1.527,0,0,0,1.486-1.181,1.548,1.548,0,0,0-.1-.971Z" transform="translate(-509.093 -886.513)" fill="#f68e24"/>
    <path id="Path_3007" data-name="Path 3007" d="M617.3,902.4a1.157,1.157,0,1,1,1.594.37,1.163,1.163,0,0,1-1.594-.37" transform="translate(-510.087 -886.83)" fill="#fff"/>
    <path id="Path_3008" data-name="Path 3008" d="M617.909,902.871a1.438,1.438,0,0,1-.758-2.657,1.47,1.47,0,0,1,1.978.458,1.438,1.438,0,0,1-.457,1.978,1.4,1.4,0,0,1-.762.222m0-2.309a.876.876,0,0,0-.741,1.338.893.893,0,0,0,1.207.279.876.876,0,0,0,.279-1.207.862.862,0,0,0-.745-.41" transform="translate(-509.72 -886.477)" fill="#f68e24"/>
    <path id="Path_3009" data-name="Path 3009" d="M596.347,895.052a2.509,2.509,0,1,1,.8-3.455,2.513,2.513,0,0,1-.8,3.455" transform="translate(-496.197 -881.063)" fill="#fff"/>
    <path id="Path_3010" data-name="Path 3010" d="M594.66,895.341a2.794,2.794,0,1,1,1.477-.427,2.737,2.737,0,0,1-1.477.427m0-5.019a2.239,2.239,0,0,0-2.169,1.725,2.227,2.227,0,1,0,2.169-1.725" transform="translate(-495.834 -880.694)" fill="#f68e24"/>
    <path id="Path_3011" data-name="Path 3011" d="M596.893,895.358a1.805,1.805,0,1,1,.575-2.487,1.807,1.807,0,0,1-.575,2.487" transform="translate(-497.113 -881.971)" fill="#fff"/>
    <path id="Path_3012" data-name="Path 3012" d="M595.573,895.554A2.083,2.083,0,0,1,593.538,893a2.052,2.052,0,0,1,.928-1.3,2.1,2.1,0,0,1,1.1-.318,2.087,2.087,0,0,1,0,4.174m0-3.616a1.526,1.526,0,0,0-1.486,1.181,1.537,1.537,0,0,0,.192,1.155,1.558,1.558,0,0,0,2.1.483,1.525,1.525,0,0,0-.806-2.818" transform="translate(-496.747 -881.608)" fill="#f68e24"/>
    <path id="Path_3013" data-name="Path 3013" d="M597.772,893.891c-.013-.022-.03-.039-.044-.061l-3.058,1.908a.53.53,0,0,0,.039.065,1.805,1.805,0,1,0,3.063-1.912" transform="translate(-497.417 -882.991)" fill="#fff"/>
    <path id="Path_3014" data-name="Path 3014" d="M595.769,896.451a2.068,2.068,0,0,1-1.769-.98l-.17-.314,3.507-2.187.152.218-.187.222.24-.148a2.088,2.088,0,0,1-.667,2.875,2.168,2.168,0,0,1-1.106.314m-1.172-1.12a1.535,1.535,0,0,0,1.978.322,1.516,1.516,0,0,0,.68-.95,1.49,1.49,0,0,0-.1-.972Z" transform="translate(-496.943 -882.506)" fill="#f68e24"/>
    <path id="Path_3015" data-name="Path 3015" d="M595.793,895.278a1.158,1.158,0,1,1,1.594.37,1.159,1.159,0,0,1-1.594-.37" transform="translate(-497.951 -882.81)" fill="#fff"/>
    <path id="Path_3016" data-name="Path 3016" d="M596.418,895.751a1.437,1.437,0,0,1-.758-2.657,1.471,1.471,0,0,1,1.978.458,1.417,1.417,0,0,1,.179,1.085,1.435,1.435,0,0,1-.64.9,1.419,1.419,0,0,1-.758.218m0-2.309a.915.915,0,0,0-.462.131.855.855,0,0,0-.388.545.88.88,0,0,0,.109.662.9.9,0,0,0,1.207.279.856.856,0,0,0,.388-.545.871.871,0,0,0-.854-1.072" transform="translate(-497.592 -882.459)" fill="#f68e24"/>
    <path id="Path_3017" data-name="Path 3017" d="M605.577,909.818a2.511,2.511,0,1,1,.8-3.459,2.513,2.513,0,0,1-.8,3.459" transform="translate(-501.406 -889.396)" fill="#fff"/>
    <path id="Path_3018" data-name="Path 3018" d="M603.883,910.121a2.783,2.783,0,1,1,1.473-.418,2.818,2.818,0,0,1-1.473.418m0-5.023a2.23,2.23,0,1,0,1.9,1.05,2.213,2.213,0,0,0-1.9-1.05" transform="translate(-501.04 -889.035)" fill="#ef4c2e"/>
    <path id="Path_3019" data-name="Path 3019" d="M606.113,910.132a1.807,1.807,0,1,1,.575-2.492,1.8,1.8,0,0,1-.575,2.492" transform="translate(-502.316 -890.306)" fill="#fff"/>
    <path id="Path_3020" data-name="Path 3020" d="M604.793,910.323a2.087,2.087,0,0,1-2.034-2.557,2.086,2.086,0,1,1,3.137,2.239,2.064,2.064,0,0,1-1.1.318m0-3.611a1.524,1.524,0,0,0-1.294,2.331,1.559,1.559,0,0,0,2.1.488,1.524,1.524,0,0,0-.81-2.819" transform="translate(-501.95 -889.944)" fill="#ef4c2e"/>
    <path id="Path_3021" data-name="Path 3021" d="M606.992,908.671c-.013-.022-.031-.043-.044-.061l-3.058,1.908c.013.022.022.043.035.065a1.807,1.807,0,1,0,3.067-1.912" transform="translate(-502.62 -891.332)" fill="#fff"/>
    <path id="Path_3022" data-name="Path 3022" d="M605.011,911.209h0a2.07,2.07,0,0,1-1.773-.984l-.148-.24.2-.214,3.289-2.052.2.3a2.089,2.089,0,0,1-.667,2.875,2.064,2.064,0,0,1-1.1.318m-1.172-1.115a1.521,1.521,0,0,0,2.557-1.6Z" transform="translate(-502.168 -890.83)" fill="#ef4c2e"/>
    <path id="Path_3023" data-name="Path 3023" d="M605.011,910.059a1.159,1.159,0,1,1,1.594.366,1.155,1.155,0,0,1-1.594-.366" transform="translate(-503.153 -891.152)" fill="#fff"/>
    <path id="Path_3024" data-name="Path 3024" d="M605.639,910.534a1.432,1.432,0,0,1-1.4-1.76,1.414,1.414,0,0,1,.64-.893,1.467,1.467,0,0,1,1.978.457,1.444,1.444,0,0,1-.457,1.982,1.481,1.481,0,0,1-.762.213m0-2.313a.867.867,0,0,0-.849.675.882.882,0,0,0,.109.662.9.9,0,0,0,1.207.279.874.874,0,0,0-.466-1.616" transform="translate(-502.796 -890.803)" fill="#ef4c2e"/>
    <path id="Path_3025" data-name="Path 3025" d="M584.074,902.7a2.511,2.511,0,1,1,.8-3.459,2.513,2.513,0,0,1-.8,3.459" transform="translate(-489.269 -885.377)" fill="#fff"/>
    <path id="Path_3026" data-name="Path 3026" d="M582.393,903a2.792,2.792,0,0,1-1.481-5.158,2.808,2.808,0,0,1,1.477-.423,2.791,2.791,0,0,1,1.481,5.158,2.832,2.832,0,0,1-1.477.422m-.009-5.019a2.23,2.23,0,1,0,0,4.461,2.23,2.23,0,1,0,0-4.461" transform="translate(-488.912 -885.017)" fill="#f68e24"/>
    <path id="Path_3027" data-name="Path 3027" d="M584.613,903.018a1.805,1.805,0,1,1,.575-2.488,1.807,1.807,0,0,1-.575,2.488" transform="translate(-490.182 -886.294)" fill="#fff"/>
    <path id="Path_3028" data-name="Path 3028" d="M583.294,903.214a2.085,2.085,0,0,1-1.106-3.855,2.1,2.1,0,0,1,1.1-.318,2.087,2.087,0,0,1,0,4.173m0-3.616A1.527,1.527,0,0,0,582,901.933a1.562,1.562,0,0,0,2.1.484,1.524,1.524,0,0,0-.81-2.819" transform="translate(-489.818 -885.931)" fill="#f68e24"/>
    <path id="Path_3029" data-name="Path 3029" d="M585.5,901.551c-.013-.022-.03-.039-.044-.061L582.4,903.4l.039.065a1.805,1.805,0,0,0,3.062-1.912" transform="translate(-490.492 -887.314)" fill="#fff"/>
    <path id="Path_3030" data-name="Path 3030" d="M583.511,904.105h0a2.08,2.08,0,0,1-1.773-.98l-.148-.235.2-.218,3.289-2.052.2.3a2.089,2.089,0,0,1-.667,2.875,2.128,2.128,0,0,1-1.1.314m-1.176-1.115a1.519,1.519,0,0,0,1.176.553h0a1.526,1.526,0,0,0,1.39-2.152Z" transform="translate(-490.035 -886.823)" fill="#f68e24"/>
    <path id="Path_3031" data-name="Path 3031" d="M583.521,902.936a1.157,1.157,0,1,1,1.594.37,1.155,1.155,0,0,1-1.594-.37" transform="translate(-491.025 -887.13)" fill="#fff"/>
    <path id="Path_3032" data-name="Path 3032" d="M584.139,903.421a1.438,1.438,0,0,1-.763-2.658,1.472,1.472,0,0,1,1.978.458,1.418,1.418,0,0,1,.179,1.085,1.438,1.438,0,0,1-1.394,1.115m0-2.318a.865.865,0,0,0-.462.135.876.876,0,0,0-.279,1.207.9.9,0,0,0,1.207.279.856.856,0,0,0,.388-.545.876.876,0,0,0-.854-1.076" transform="translate(-490.662 -886.788)" fill="#f68e24"/>
    <path id="Path_3033" data-name="Path 3033" d="M593.3,917.479a2.511,2.511,0,1,1,.8-3.459,2.513,2.513,0,0,1-.8,3.459" transform="translate(-494.475 -893.718)" fill="#fff"/>
    <path id="Path_3034" data-name="Path 3034" d="M591.611,917.781a2.791,2.791,0,0,1-1.481-5.158,2.8,2.8,0,0,1,3.847.889,2.79,2.79,0,0,1-.889,3.847,2.831,2.831,0,0,1-1.477.423m-.009-5.019a2.23,2.23,0,1,0,1.886,1.046,2.195,2.195,0,0,0-1.886-1.046" transform="translate(-494.113 -893.358)" fill="#ef4c2e"/>
    <path id="Path_3035" data-name="Path 3035" d="M593.833,917.8a1.805,1.805,0,1,1,.575-2.488,1.807,1.807,0,0,1-.575,2.488" transform="translate(-495.386 -894.635)" fill="#fff"/>
    <path id="Path_3036" data-name="Path 3036" d="M592.514,917.984a2.085,2.085,0,0,1-1.107-3.856,2.085,2.085,0,0,1,2.875.662,2.09,2.09,0,0,1-1.769,3.193m0-3.612a1.525,1.525,0,0,0-1.294,2.331,1.559,1.559,0,0,0,2.1.488,1.516,1.516,0,0,0,.68-.949,1.537,1.537,0,0,0-.192-1.155,1.52,1.52,0,0,0-1.294-.715" transform="translate(-495.021 -894.267)" fill="#ef4c2e"/>
    <path id="Path_3037" data-name="Path 3037" d="M594.722,916.331c-.013-.022-.031-.039-.044-.061l-3.058,1.908a.481.481,0,0,1,.035.066,1.807,1.807,0,0,0,3.067-1.913" transform="translate(-495.695 -895.655)" fill="#fff"/>
    <path id="Path_3038" data-name="Path 3038" d="M592.731,918.875h0a2.081,2.081,0,0,1-1.773-.98l-.148-.24.2-.213,3.289-2.052.152.227-.187.218.24-.148a2.088,2.088,0,0,1-.667,2.875,2.117,2.117,0,0,1-1.107.314m-1.167-1.115a1.522,1.522,0,0,0,2.557-1.6Z" transform="translate(-495.238 -895.159)" fill="#ef4c2e"/>
    <path id="Path_3039" data-name="Path 3039" d="M592.741,917.72a1.157,1.157,0,1,1,1.594.37,1.155,1.155,0,0,1-1.594-.37" transform="translate(-496.229 -895.476)" fill="#fff"/>
    <path id="Path_3040" data-name="Path 3040" d="M593.36,918.191a1.438,1.438,0,0,1-.758-2.657,1.471,1.471,0,0,1,1.978.458,1.436,1.436,0,0,1-.462,1.978,1.376,1.376,0,0,1-.758.222m0-2.313a.867.867,0,0,0-.849.675.881.881,0,0,0,.109.662.893.893,0,0,0,1.207.279.873.873,0,0,0-.466-1.616" transform="translate(-495.866 -895.123)" fill="#ef4c2e"/>
    <path id="Path_3041" data-name="Path 3041" d="M571.794,910.356a2.511,2.511,0,1,1,.8-3.459,2.513,2.513,0,0,1-.8,3.459" transform="translate(-482.339 -889.698)" fill="#fff"/>
    <path id="Path_3042" data-name="Path 3042" d="M570.11,910.661a2.788,2.788,0,1,1,1.472-.422,2.777,2.777,0,0,1-1.472.422m0-5.019a2.23,2.23,0,1,0,1.891,1.05,2.211,2.211,0,0,0-1.891-1.05" transform="translate(-481.979 -889.34)" fill="#ef4c2e"/>
    <path id="Path_3043" data-name="Path 3043" d="M572.343,910.678a1.805,1.805,0,1,1,.575-2.488,1.807,1.807,0,0,1-.575,2.488" transform="translate(-483.258 -890.616)" fill="#fff"/>
    <path id="Path_3044" data-name="Path 3044" d="M571.023,910.868a2.1,2.1,0,1,1,1.1-.322,2.045,2.045,0,0,1-1.1.322m0-3.616a1.524,1.524,0,0,0-1.294,2.331,1.558,1.558,0,0,0,2.1.483,1.521,1.521,0,0,0-.81-2.814" transform="translate(-482.892 -890.249)" fill="#ef4c2e"/>
    <path id="Path_3045" data-name="Path 3045" d="M573.222,909.211c-.013-.022-.031-.039-.044-.061l-3.058,1.908c.013.022.022.044.035.065a1.807,1.807,0,0,0,3.067-1.912" transform="translate(-483.562 -891.637)" fill="#fff"/>
    <path id="Path_3046" data-name="Path 3046" d="M571.241,911.765h0a2.07,2.07,0,0,1-1.773-.985l-.148-.24.2-.214,3.28-2.048.2.292a2.09,2.09,0,0,1-1.764,3.193m-1.172-1.12a1.514,1.514,0,0,0,1.978.327,1.53,1.53,0,0,0,.584-1.921Z" transform="translate(-483.11 -891.146)" fill="#ef4c2e"/>
    <path id="Path_3047" data-name="Path 3047" d="M571.245,910.6a1.159,1.159,0,1,1,1.594.366,1.163,1.163,0,0,1-1.594-.366" transform="translate(-484.099 -891.453)" fill="#fff"/>
    <path id="Path_3048" data-name="Path 3048" d="M571.869,911.086a1.435,1.435,0,0,1-.762-2.653,1.478,1.478,0,0,1,1.982.457,1.414,1.414,0,0,1,.179,1.085,1.434,1.434,0,0,1-.64.9,1.5,1.5,0,0,1-.758.214m0-2.313a.879.879,0,0,0-.741,1.342.9.9,0,0,0,1.207.279.855.855,0,0,0,.388-.545.885.885,0,0,0-.109-.662.868.868,0,0,0-.745-.414" transform="translate(-483.738 -891.116)" fill="#ef4c2e"/>
    <path id="Path_3049" data-name="Path 3049" d="M581.027,925.136a2.511,2.511,0,1,1,.8-3.459,2.513,2.513,0,0,1-.8,3.459" transform="translate(-487.551 -898.039)" fill="#fff"/>
    <path id="Path_3050" data-name="Path 3050" d="M579.331,925.441a2.79,2.79,0,0,1-1.481-5.158,2.8,2.8,0,0,1,1.472-.423,2.793,2.793,0,0,1,1.481,5.162,2.829,2.829,0,0,1-1.472.418m0-5.023a2.233,2.233,0,1,0,1.891,1.05,2.213,2.213,0,0,0-1.891-1.05" transform="translate(-487.183 -897.681)" fill="#ef4c2e"/>
    <path id="Path_3051" data-name="Path 3051" d="M581.563,925.458a1.805,1.805,0,1,1,.575-2.488,1.806,1.806,0,0,1-.575,2.488" transform="translate(-488.461 -898.958)" fill="#fff"/>
    <path id="Path_3052" data-name="Path 3052" d="M580.244,925.644a2.085,2.085,0,0,1-1.106-3.855,2.1,2.1,0,0,1,1.1-.318,2.085,2.085,0,0,1,1.1,3.855,2.041,2.041,0,0,1-1.1.318m0-3.612a1.525,1.525,0,0,0-1.294,2.331,1.567,1.567,0,0,0,2.1.488,1.524,1.524,0,0,0-.81-2.819" transform="translate(-488.096 -898.59)" fill="#ef4c2e"/>
    <path id="Path_3053" data-name="Path 3053" d="M582.442,923.991c-.013-.022-.031-.039-.044-.061l-3.058,1.908c.013.022.022.044.035.065a1.807,1.807,0,0,0,3.067-1.912" transform="translate(-488.765 -899.978)" fill="#fff"/>
    <path id="Path_3054" data-name="Path 3054" d="M580.461,926.535h0a2.081,2.081,0,0,1-1.773-.98l-.148-.24.2-.214,3.289-2.052.2.3a2.083,2.083,0,0,1-1.769,3.189m-1.172-1.115a1.509,1.509,0,0,0,1.973.327,1.53,1.53,0,0,0,.584-1.921Z" transform="translate(-488.313 -899.482)" fill="#ef4c2e"/>
    <path id="Path_3055" data-name="Path 3055" d="M580.465,925.378a1.159,1.159,0,1,1,1.594.366,1.163,1.163,0,0,1-1.594-.366" transform="translate(-489.302 -899.797)" fill="#fff"/>
    <path id="Path_3056" data-name="Path 3056" d="M581.089,925.854a1.436,1.436,0,0,1-.762-2.653,1.467,1.467,0,0,1,1.978.457,1.431,1.431,0,0,1-1.215,2.2m0-2.313a.866.866,0,0,0-.462.135.856.856,0,0,0-.388.545.874.874,0,0,0,1.316.941.877.877,0,0,0-.466-1.621" transform="translate(-488.941 -899.449)" fill="#ef4c2e"/>
    <path id="Path_3057" data-name="Path 3057" d="M570.3,900.808l-.348-.558,1.673-1.041.349.562Zm2.226-1.39-.349-.562,1.673-1.041.349.558Zm2.23-1.39-.349-.558,1.673-1.041.349.562Zm2.231-1.394-.349-.558,1.673-1.046.349.558Zm2.226-1.39-.349-.562,1.673-1.046.348.562Zm2.23-1.39-.348-.558,1.673-1.046.349.562Zm2.231-1.39-.349-.562L585,890.863l.349.558Zm2.226-1.394-.349-.558,1.673-1.041.349.558Zm2.231-1.39-.349-.562,1.673-1.041.349.558Zm2.226-1.39-.349-.558,1.673-1.046.349.562Zm2.23-1.39-.348-.562,1.673-1.041.349.558Zm2.231-1.39-.349-.562,1.673-1.046.349.562Zm2.226-1.394-.349-.558,1.673-1.041.349.558Z" transform="translate(-483.466 -876.608)" fill="#fff"/>
    <path id="Path_3058" data-name="Path 3058" d="M569.7,900.689l-.645-1.037,2.148-1.337.645,1.037Zm.126-.854.052.083,1.2-.745-.052-.083Zm2.1-.536-.645-1.037,2.148-1.337.645,1.037Zm.126-.854.052.083,1.194-.745-.052-.083Zm2.1-.536-.645-1.037,2.148-1.342.645,1.037Zm.126-.858.052.087,1.2-.745-.052-.083Zm2.1-.531-.645-1.037,2.148-1.342.645,1.037Zm.126-.858.052.083,1.2-.745-.052-.083Zm2.1-.531-.649-1.033,2.148-1.342.645,1.037Zm.126-.858.052.087,1.194-.745-.052-.087Zm2.1-.531L580.2,892.7l2.148-1.342L583,892.4Zm.126-.858.052.083,1.2-.745-.052-.083Zm2.1-.536-.645-1.037,2.148-1.337.645,1.037Zm.126-.854.052.083,1.2-.745-.052-.083Zm2.1-.536-.645-1.037,2.148-1.342.645,1.037Zm.126-.858.052.083,1.194-.745-.052-.083Zm2.1-.531-.645-1.037,2.148-1.337.645,1.032Zm.126-.858.052.083,1.2-.745-.052-.083Zm2.1-.536-.645-1.037,2.148-1.342.645,1.037Zm.126-.854.052.083,1.2-.745-.052-.083Zm2.1-.536-.645-1.037,2.148-1.342.645,1.032Zm.122-.854.052.083,1.2-.745-.052-.083Zm2.1-.536-.645-1.037,2.148-1.342.645,1.037Zm.126-.858.052.087,1.194-.745-.052-.087Zm2.1-.531-.645-1.032,2.148-1.342.645,1.037Zm.126-.858.052.083,1.194-.745-.052-.083Z" transform="translate(-482.963 -876.106)" fill="#be722c"/>
    <path id="Path_3059" data-name="Path 3059" d="M373.8,998.751a2.992,2.992,0,0,1-.675-4.165l7.855-10.887a2.992,2.992,0,0,1,4.165-.675l28.67,20.68a2.991,2.991,0,0,1,.675,4.165l-7.855,10.887a3,3,0,0,1-4.165.675Z" transform="translate(-372.07 -933.012)" fill="#fff"/>
    <path id="Path_3060" data-name="Path 3060" d="M403.851,1019.908a3.243,3.243,0,0,1-1.9-.614l-28.67-20.68a3.267,3.267,0,0,1-.736-4.557l7.855-10.887a3.279,3.279,0,0,1,2.653-1.351,3.243,3.243,0,0,1,1.9.614l28.67,20.68a3.266,3.266,0,0,1,.736,4.557l-7.855,10.887a3.279,3.279,0,0,1-2.653,1.35m-20.806-37.526a2.722,2.722,0,0,0-2.2,1.12l-7.855,10.887a2.708,2.708,0,0,0,.61,3.773l28.67,20.68a2.689,2.689,0,0,0,1.577.505,2.716,2.716,0,0,0,2.2-1.12l7.855-10.887a2.708,2.708,0,0,0-.61-3.773l-28.67-20.68a2.689,2.689,0,0,0-1.577-.505" transform="translate(-371.709 -932.649)" fill="#f68e24"/>
    <path id="Path_3061" data-name="Path 3061" d="M450.387,1036.072a3.058,3.058,0,1,1,4.269-.693,3.064,3.064,0,0,1-4.269.693" transform="translate(-415.274 -960.139)" fill="#fff"/>
    <path id="Path_3062" data-name="Path 3062" d="M451.806,1036.579a3.339,3.339,0,0,1-2.705-5.293,3.339,3.339,0,1,1,2.705,5.293m.009-6.121a2.788,2.788,0,0,0-2.257,1.154,2.78,2.78,0,0,0,2.248,4.4,2.779,2.779,0,0,0,1.629-5.032,2.75,2.75,0,0,0-1.621-.527" transform="translate(-414.907 -959.783)" fill="#ef4c2e"/>
    <path id="Path_3063" data-name="Path 3063" d="M452.006,1036.5a2.2,2.2,0,1,1,3.071-.5,2.2,2.2,0,0,1-3.071.5" transform="translate(-416.387 -961.259)" fill="#fff"/>
    <path id="Path_3064" data-name="Path 3064" d="M452.928,1036.832a2.455,2.455,0,0,1-1.451-.471,2.479,2.479,0,0,1,1.451-4.491,2.483,2.483,0,0,1,2.013,3.934,2.5,2.5,0,0,1-2.013,1.028m0-4.4a1.919,1.919,0,0,0-1.124,3.477,1.971,1.971,0,0,0,2.679-.436,1.918,1.918,0,0,0-.431-2.679,1.931,1.931,0,0,0-1.124-.361" transform="translate(-416.025 -960.895)" fill="#ef4c2e"/>
    <path id="Path_3065" data-name="Path 3065" d="M455.074,1037.089l.052-.078-3.564-2.57-.061.074a2.2,2.2,0,0,0,3.572,2.575" transform="translate(-416.384 -962.345)" fill="#fff"/>
    <path id="Path_3066" data-name="Path 3066" d="M452.928,1037.825h0a2.455,2.455,0,0,1-1.451-.47,2.485,2.485,0,0,1-.562-3.463l.214-.261.235.126,3.781,2.731-.209.314a2.5,2.5,0,0,1-2.008,1.023m-1.66-3.45a1.92,1.92,0,0,0,3.1,2.239Z" transform="translate(-416.025 -961.888)" fill="#ef4c2e"/>
    <path id="Path_3067" data-name="Path 3067" d="M453.173,1034.911a1.409,1.409,0,1,1,.318,1.965,1.409,1.409,0,0,1-.318-1.965" transform="translate(-417.411 -962.281)" fill="#fff"/>
    <path id="Path_3068" data-name="Path 3068" d="M453.957,1037.082a1.66,1.66,0,0,1-.985-.318,1.7,1.7,0,0,1-.383-2.361,1.728,1.728,0,0,1,2.357-.379,1.689,1.689,0,0,1,.383,2.357,1.7,1.7,0,0,1-1.372.7m0-2.819a1.132,1.132,0,0,0-.667,2.048,1.163,1.163,0,0,0,1.577-.257,1.134,1.134,0,0,0,.2-.841,1.128,1.128,0,0,0-1.111-.95" transform="translate(-417.053 -961.938)" fill="#ef4c2e"/>
    <path id="Path_3069" data-name="Path 3069" d="M437.968,1053.3a3.06,3.06,0,1,1,4.274-.693,3.059,3.059,0,0,1-4.274.693" transform="translate(-408.266 -969.862)" fill="#fff"/>
    <path id="Path_3070" data-name="Path 3070" d="M439.4,1053.789a3.34,3.34,0,0,1-2.705-5.293,3.352,3.352,0,0,1,2.71-1.385,3.3,3.3,0,0,1,1.947.632,3.339,3.339,0,0,1-1.952,6.047m0-6.117a2.788,2.788,0,0,0-2.257,1.155,2.772,2.772,0,1,0,2.257-1.155" transform="translate(-407.903 -969.495)" fill="#ef4c2e"/>
    <path id="Path_3071" data-name="Path 3071" d="M439.586,1053.7a2.2,2.2,0,1,1,3.071-.5,2.2,2.2,0,0,1-3.071.5" transform="translate(-409.378 -970.966)" fill="#fff"/>
    <path id="Path_3072" data-name="Path 3072" d="M440.508,1054.042a2.455,2.455,0,0,1-1.451-.47,2.479,2.479,0,0,1,1.451-4.491,2.455,2.455,0,0,1,1.451.47,2.479,2.479,0,0,1-1.451,4.491m0-4.4a1.922,1.922,0,0,0-1.124,3.481,1.973,1.973,0,0,0,2.684-.436,1.921,1.921,0,0,0-1.56-3.045" transform="translate(-409.015 -970.607)" fill="#ef4c2e"/>
    <path id="Path_3073" data-name="Path 3073" d="M442.66,1054.3l.052-.078-3.564-2.57-.057.07a2.2,2.2,0,1,0,3.568,2.579" transform="translate(-409.381 -972.058)" fill="#fff"/>
    <path id="Path_3074" data-name="Path 3074" d="M440.508,1055.03h0a2.454,2.454,0,0,1-1.451-.47,2.486,2.486,0,0,1-.562-3.463l.218-.266.231.131,3.777,2.723-.2.309a2.476,2.476,0,0,1-2.013,1.037m-1.66-3.446a1.921,1.921,0,0,0,.536,2.522,1.975,1.975,0,0,0,2.566-.287Z" transform="translate(-409.015 -971.595)" fill="#ef4c2e"/>
    <path id="Path_3075" data-name="Path 3075" d="M440.756,1052.124a1.409,1.409,0,1,1,.318,1.965,1.413,1.413,0,0,1-.318-1.965" transform="translate(-410.404 -971.996)" fill="#fff"/>
    <path id="Path_3076" data-name="Path 3076" d="M441.537,1054.294a1.66,1.66,0,0,1-.985-.318,1.7,1.7,0,0,1-.383-2.361,1.733,1.733,0,0,1,2.357-.379,1.688,1.688,0,0,1,.383,2.357,1.7,1.7,0,0,1-1.372.7m0-2.814a1.128,1.128,0,0,0-.667,2.043,1.163,1.163,0,0,0,1.577-.257,1.125,1.125,0,0,0-.911-1.786" transform="translate(-410.044 -971.652)" fill="#ef4c2e"/>
    <path id="Path_3077" data-name="Path 3077" d="M436.087,1025.762a3.058,3.058,0,1,1,4.269-.693,3.064,3.064,0,0,1-4.269.693" transform="translate(-407.204 -954.321)" fill="#fff"/>
    <path id="Path_3078" data-name="Path 3078" d="M437.509,1026.258a3.339,3.339,0,0,1-2.705-5.293,3.352,3.352,0,0,1,2.71-1.385,3.339,3.339,0,0,1,0,6.678m0-6.116a2.779,2.779,0,0,0-1.629,5.032,2.746,2.746,0,0,0,1.621.523,2.789,2.789,0,0,0,2.257-1.155,2.777,2.777,0,0,0-2.248-4.4" transform="translate(-406.84 -953.959)" fill="#ef4c2e"/>
    <path id="Path_3079" data-name="Path 3079" d="M437.7,1026.177a2.2,2.2,0,1,1,3.071-.5,2.2,2.2,0,0,1-3.071.5" transform="translate(-408.314 -955.433)" fill="#fff"/>
    <path id="Path_3080" data-name="Path 3080" d="M438.627,1026.512a2.484,2.484,0,0,1-2.013-3.934,2.491,2.491,0,0,1,2.013-1.028,2.483,2.483,0,0,1,2.013,3.934,2.491,2.491,0,0,1-2.013,1.028m0-4.4a1.92,1.92,0,0,0-1.128,3.476,1.968,1.968,0,0,0,2.679-.436,1.918,1.918,0,0,0-.431-2.679,1.877,1.877,0,0,0-1.12-.362" transform="translate(-407.953 -955.071)" fill="#ef4c2e"/>
    <path id="Path_3081" data-name="Path 3081" d="M440.78,1026.769l.052-.079-3.564-2.57c-.017.026-.039.048-.057.074a2.2,2.2,0,0,0,3.568,2.575" transform="translate(-408.32 -956.521)" fill="#fff"/>
    <path id="Path_3082" data-name="Path 3082" d="M438.627,1027.505h0a2.483,2.483,0,0,1-2.013-3.934l.209-.261.24.122,3.781,2.727-.2.309a2.476,2.476,0,0,1-2.013,1.037m-1.66-3.45a1.924,1.924,0,0,0,1.66,2.888,1.929,1.929,0,0,0,1.442-.649Z" transform="translate(-407.953 -956.064)" fill="#ef4c2e"/>
    <path id="Path_3083" data-name="Path 3083" d="M438.867,1024.594a1.41,1.41,0,1,1,.318,1.969,1.413,1.413,0,0,1-.318-1.969" transform="translate(-409.339 -956.459)" fill="#fff"/>
    <path id="Path_3084" data-name="Path 3084" d="M439.649,1026.766a1.713,1.713,0,0,1-.989-.318,1.693,1.693,0,0,1-.383-2.361,1.742,1.742,0,0,1,2.361-.379,1.687,1.687,0,0,1-.989,3.058m0-2.819a1.143,1.143,0,0,0-.919.466,1.13,1.13,0,0,0,.257,1.577,1.162,1.162,0,0,0,1.577-.253,1.13,1.13,0,0,0-.257-1.577,1.109,1.109,0,0,0-.658-.214" transform="translate(-408.976 -956.117)" fill="#ef4c2e"/>
    <path id="Path_3085" data-name="Path 3085" d="M423.665,1042.984a3.058,3.058,0,1,1,4.269-.693,3.06,3.06,0,0,1-4.269.693" transform="translate(-400.192 -964.041)" fill="#fff"/>
    <path id="Path_3086" data-name="Path 3086" d="M425.089,1043.479a3.339,3.339,0,1,1,2.71-1.385,3.323,3.323,0,0,1-2.71,1.385m.009-6.121a2.781,2.781,0,0,0-1.629,5.036,2.746,2.746,0,0,0,1.621.523,2.778,2.778,0,0,0,2.745-3.224,2.78,2.78,0,0,0-2.736-2.335" transform="translate(-399.831 -963.677)" fill="#ef4c2e"/>
    <path id="Path_3087" data-name="Path 3087" d="M425.286,1043.4a2.2,2.2,0,1,1,3.071-.5,2.2,2.2,0,0,1-3.071.5" transform="translate(-401.308 -965.153)" fill="#fff"/>
    <path id="Path_3088" data-name="Path 3088" d="M426.207,1043.732a2.484,2.484,0,0,1-2.013-3.934,2.486,2.486,0,0,1,2.013-1.028,2.483,2.483,0,0,1,2.013,3.934,2.5,2.5,0,0,1-2.013,1.028m0-4.4a1.928,1.928,0,0,0-1.56.8,1.918,1.918,0,0,0,.431,2.679,1.972,1.972,0,0,0,2.679-.436,1.916,1.916,0,0,0-1.551-3.041" transform="translate(-400.944 -964.789)" fill="#ef4c2e"/>
    <path id="Path_3089" data-name="Path 3089" d="M428.36,1043.989l.052-.078-3.564-2.57c-.017.026-.039.048-.057.074a2.2,2.2,0,1,0,3.568,2.575" transform="translate(-401.31 -966.239)" fill="#fff"/>
    <path id="Path_3090" data-name="Path 3090" d="M426.207,1044.725h0a2.483,2.483,0,0,1-2.013-3.934l.214-.261.235.126,3.781,2.727-.2.309a2.5,2.5,0,0,1-2.013,1.032m-1.66-3.45a1.918,1.918,0,0,0,1.66,2.884,1.929,1.929,0,0,0,1.442-.649Z" transform="translate(-400.944 -965.782)" fill="#ef4c2e"/>
    <path id="Path_3091" data-name="Path 3091" d="M426.453,1041.805a1.409,1.409,0,1,1,.318,1.965,1.4,1.4,0,0,1-.318-1.965" transform="translate(-402.332 -966.173)" fill="#fff"/>
    <path id="Path_3092" data-name="Path 3092" d="M427.235,1043.985a1.662,1.662,0,0,1-.985-.318,1.693,1.693,0,0,1-.383-2.361,1.732,1.732,0,0,1,2.357-.379,1.688,1.688,0,0,1,.383,2.357,1.7,1.7,0,0,1-1.372.7m0-2.819a1.128,1.128,0,0,0-.662,2.043,1.167,1.167,0,0,0,1.577-.257,1.125,1.125,0,0,0-.915-1.786" transform="translate(-401.972 -965.834)" fill="#ef4c2e"/>
    <path id="Path_3093" data-name="Path 3093" d="M421.787,1015.454a3.058,3.058,0,1,1,4.269-.693,3.064,3.064,0,0,1-4.269.693" transform="translate(-399.134 -948.504)" fill="#fff"/>
    <path id="Path_3094" data-name="Path 3094" d="M423.209,1015.948a3.339,3.339,0,1,1,2.71-1.385,3.323,3.323,0,0,1-2.71,1.385m0-6.121a2.779,2.779,0,0,0-1.629,5.032,2.745,2.745,0,0,0,1.621.523,2.788,2.788,0,0,0,2.257-1.154,2.774,2.774,0,0,0-2.248-4.4" transform="translate(-398.77 -948.14)" fill="#ef4c2e"/>
    <path id="Path_3095" data-name="Path 3095" d="M423.4,1015.867a2.2,2.2,0,1,1,3.071-.5,2.2,2.2,0,0,1-3.071.5" transform="translate(-400.244 -949.614)" fill="#fff"/>
    <path id="Path_3096" data-name="Path 3096" d="M424.318,1016.2a2.454,2.454,0,0,1-1.451-.47,2.479,2.479,0,0,1,1.451-4.491,2.454,2.454,0,0,1,1.451.471,2.479,2.479,0,0,1-1.451,4.491m0-4.4a1.919,1.919,0,0,0-1.124,3.476,1.971,1.971,0,0,0,2.679-.436,1.915,1.915,0,0,0-1.555-3.041" transform="translate(-399.878 -949.252)" fill="#ef4c2e"/>
    <path id="Path_3097" data-name="Path 3097" d="M426.47,1016.449l.052-.078-3.564-2.57c-.017.022-.039.048-.057.074a2.2,2.2,0,0,0,3.568,2.575" transform="translate(-400.244 -950.697)" fill="#fff"/>
    <path id="Path_3098" data-name="Path 3098" d="M424.317,1017.161h0a2.483,2.483,0,0,1-2.013-3.934l.235-.288,3.986,2.875-.139.222c-.026.043-.044.07-.061.1a2.477,2.477,0,0,1-2.008,1.028m-1.655-3.45a1.9,1.9,0,0,0-.235,1.272,1.921,1.921,0,0,0,.771,1.25,1.975,1.975,0,0,0,2.566-.288Z" transform="translate(-399.877 -950.211)" fill="#ef4c2e"/>
    <path id="Path_3099" data-name="Path 3099" d="M424.567,1014.284a1.41,1.41,0,1,1,.318,1.969,1.412,1.412,0,0,1-.318-1.969" transform="translate(-401.269 -950.64)" fill="#fff"/>
    <path id="Path_3100" data-name="Path 3100" d="M425.345,1016.459a1.66,1.66,0,0,1-.985-.318,1.689,1.689,0,0,1-.383-2.357,1.743,1.743,0,0,1,2.361-.383,1.694,1.694,0,0,1,.383,2.361,1.708,1.708,0,0,1-1.377.7m0-2.819a1.135,1.135,0,0,0-.919.471,1.129,1.129,0,0,0,.257,1.573,1.162,1.162,0,0,0,1.577-.253,1.129,1.129,0,0,0-.253-1.577,1.132,1.132,0,0,0-.662-.213" transform="translate(-400.905 -950.302)" fill="#ef4c2e"/>
    <path id="Path_3101" data-name="Path 3101" d="M409.368,1032.664a3.06,3.06,0,1,1,4.274-.693,3.059,3.059,0,0,1-4.274.693" transform="translate(-392.125 -958.216)" fill="#fff"/>
    <path id="Path_3102" data-name="Path 3102" d="M410.786,1033.159a3.339,3.339,0,1,1,2.71-1.385,3.323,3.323,0,0,1-2.71,1.385m.009-6.116a2.789,2.789,0,0,0-2.257,1.154,2.772,2.772,0,0,0,2.244,4.4,2.779,2.779,0,0,0,1.629-5.032,2.724,2.724,0,0,0-1.616-.523" transform="translate(-391.757 -957.853)" fill="#f68e24"/>
    <path id="Path_3103" data-name="Path 3103" d="M410.986,1033.08a2.2,2.2,0,1,1,3.071-.5,2.2,2.2,0,0,1-3.071.5" transform="translate(-393.238 -959.329)" fill="#fff"/>
    <path id="Path_3104" data-name="Path 3104" d="M411.907,1033.412a2.483,2.483,0,0,1-2.013-3.934,2.491,2.491,0,0,1,2.013-1.028,2.483,2.483,0,0,1,2.013,3.934,2.491,2.491,0,0,1-2.013,1.028m0-4.4a1.927,1.927,0,0,0-1.56.8,1.922,1.922,0,0,0,.431,2.684,1.967,1.967,0,0,0,2.679-.436,1.917,1.917,0,0,0-.431-2.679,1.881,1.881,0,0,0-1.12-.366" transform="translate(-392.873 -958.965)" fill="#ef4c2e"/>
    <path id="Path_3105" data-name="Path 3105" d="M414.06,1033.669c.017-.022.035-.052.052-.078l-3.564-2.571-.057.07a2.2,2.2,0,0,0,3.568,2.579" transform="translate(-393.24 -960.415)" fill="#fff"/>
    <path id="Path_3106" data-name="Path 3106" d="M411.907,1034.4h0a2.485,2.485,0,0,1-2.448-2.086,2.482,2.482,0,0,1,.436-1.852l.213-.261.235.131,3.781,2.728-.148.226c-.031.043-.044.07-.061.092a2.484,2.484,0,0,1-2.008,1.023m-1.66-3.446a1.9,1.9,0,0,0-.235,1.272,1.92,1.92,0,0,0,.771,1.25,1.969,1.969,0,0,0,2.562-.288Z" transform="translate(-392.873 -959.952)" fill="#f68e24"/>
    <path id="Path_3107" data-name="Path 3107" d="M412.153,1031.5a1.41,1.41,0,1,1,.318,1.969,1.416,1.416,0,0,1-.318-1.969" transform="translate(-394.261 -960.354)" fill="#fff"/>
    <path id="Path_3108" data-name="Path 3108" d="M412.931,1033.665a1.69,1.69,0,0,1-1.372-2.679,1.742,1.742,0,0,1,2.357-.384,1.692,1.692,0,0,1-.985,3.063m0-2.814a1.129,1.129,0,0,0-.662,2.043,1.163,1.163,0,0,0,1.577-.257,1.134,1.134,0,0,0-.257-1.577,1.105,1.105,0,0,0-.658-.209" transform="translate(-393.898 -960.01)" fill="#ef4c2e"/>
    <path id="Path_3109" data-name="Path 3109" d="M407.485,1005.132a3.058,3.058,0,1,1,4.269-.693,3.06,3.06,0,0,1-4.269.693" transform="translate(-391.062 -942.678)" fill="#fff"/>
    <path id="Path_3110" data-name="Path 3110" d="M408.907,1005.629a3.34,3.34,0,0,1-2.705-5.293,3.339,3.339,0,1,1,2.705,5.293m0-6.116a2.781,2.781,0,0,0-1.629,5.036,2.748,2.748,0,0,0,1.625.523,2.779,2.779,0,0,0,1.629-5.032,2.734,2.734,0,0,0-1.625-.527" transform="translate(-390.697 -942.316)" fill="#f68e24"/>
    <path id="Path_3111" data-name="Path 3111" d="M409.1,1005.547a2.2,2.2,0,1,1,3.071-.5,2.2,2.2,0,0,1-3.071.5" transform="translate(-392.173 -943.79)" fill="#fff"/>
    <path id="Path_3112" data-name="Path 3112" d="M410.018,1005.882a2.455,2.455,0,0,1-1.451-.471,2.479,2.479,0,0,1,1.451-4.491,2.481,2.481,0,1,1,0,4.962m0-4.4a1.919,1.919,0,0,0-1.124,3.476,1.971,1.971,0,0,0,2.679-.436,1.916,1.916,0,0,0-1.555-3.041" transform="translate(-391.808 -943.428)" fill="#ef4c2e"/>
    <path id="Path_3113" data-name="Path 3113" d="M412.17,1006.139l.052-.078-3.564-2.57c-.017.026-.039.048-.057.074a2.2,2.2,0,0,0,3.568,2.575" transform="translate(-392.174 -944.878)" fill="#fff"/>
    <path id="Path_3114" data-name="Path 3114" d="M410.018,1006.87h0a2.455,2.455,0,0,1-1.451-.471,2.485,2.485,0,0,1-.562-3.463l.218-.266.231.131,3.777,2.723-.144.222c-.031.044-.044.07-.061.1a2.465,2.465,0,0,1-2.008,1.028m-1.656-3.446a1.922,1.922,0,0,0,.536,2.522,1.975,1.975,0,0,0,2.566-.288Z" transform="translate(-391.808 -944.416)" fill="#f68e24"/>
    <path id="Path_3115" data-name="Path 3115" d="M410.267,1003.961a1.41,1.41,0,1,1,.318,1.969,1.408,1.408,0,0,1-.318-1.969" transform="translate(-393.199 -944.814)" fill="#fff"/>
    <path id="Path_3116" data-name="Path 3116" d="M411.045,1006.136a1.66,1.66,0,0,1-.985-.318,1.688,1.688,0,0,1-.383-2.357,1.733,1.733,0,0,1,2.357-.383,1.688,1.688,0,0,1-.989,3.058m0-2.819a1.132,1.132,0,0,0-.667,2.047,1.158,1.158,0,0,0,1.577-.257,1.13,1.13,0,0,0-.257-1.577,1.087,1.087,0,0,0-.653-.213" transform="translate(-392.835 -944.475)" fill="#ef4c2e"/>
    <path id="Path_3117" data-name="Path 3117" d="M395.065,1022.346a3.058,3.058,0,1,1,4.269-.688,3.06,3.06,0,0,1-4.269.688" transform="translate(-384.051 -952.395)" fill="#fff"/>
    <path id="Path_3118" data-name="Path 3118" d="M396.486,1022.848a3.339,3.339,0,1,1,2.71-1.385,3.323,3.323,0,0,1-2.71,1.385m.009-6.121a2.788,2.788,0,0,0-2.257,1.155,2.78,2.78,0,0,0,2.252,4.4,2.779,2.779,0,1,0,0-5.559" transform="translate(-383.687 -952.034)" fill="#f68e24"/>
    <path id="Path_3119" data-name="Path 3119" d="M396.676,1022.77a2.2,2.2,0,1,1,3.071-.5,2.2,2.2,0,0,1-3.071.5" transform="translate(-385.162 -953.511)" fill="#fff"/>
    <path id="Path_3120" data-name="Path 3120" d="M397.6,1023.1a2.484,2.484,0,0,1-2.013-3.934,2.485,2.485,0,0,1,2.013-1.028,2.455,2.455,0,0,1,1.451.471,2.479,2.479,0,0,1-1.451,4.491m0-4.4a1.928,1.928,0,0,0-1.56.8,1.9,1.9,0,0,0-.34,1.429,1.921,1.921,0,0,0,.771,1.25,1.967,1.967,0,0,0,2.679-.436,1.922,1.922,0,0,0-.436-2.679,1.884,1.884,0,0,0-1.115-.362" transform="translate(-384.798 -953.146)" fill="#f68e24"/>
    <path id="Path_3121" data-name="Path 3121" d="M399.754,1023.359a.763.763,0,0,0,.048-.078l-3.564-2.57c-.017.026-.039.048-.057.074a2.2,2.2,0,0,0,3.572,2.575" transform="translate(-385.164 -954.596)" fill="#fff"/>
    <path id="Path_3122" data-name="Path 3122" d="M397.607,1024.14h0a2.483,2.483,0,0,1-2.013-3.934l.166-.227.283.092,3.777,2.727-.2.309a2.509,2.509,0,0,1-2.017,1.032m-1.66-3.45a1.9,1.9,0,0,0-.235,1.272,1.921,1.921,0,0,0,.771,1.25,1.969,1.969,0,0,0,2.562-.288Z" transform="translate(-384.803 -954.185)" fill="#f68e24"/>
    <path id="Path_3123" data-name="Path 3123" d="M397.853,1021.181a1.409,1.409,0,1,1,.314,1.969,1.4,1.4,0,0,1-.314-1.969" transform="translate(-386.191 -954.532)" fill="#fff"/>
    <path id="Path_3124" data-name="Path 3124" d="M398.627,1023.353a1.661,1.661,0,0,1-.985-.318,1.7,1.7,0,0,1-.383-2.361,1.738,1.738,0,0,1,2.357-.383,1.691,1.691,0,0,1-.989,3.063m0-2.819a1.129,1.129,0,0,0-.662,2.043,1.163,1.163,0,0,0,1.577-.257,1.129,1.129,0,0,0-.253-1.577,1.16,1.16,0,0,0-.662-.209" transform="translate(-385.827 -954.19)" fill="#f68e24"/>
    <path id="Path_3125" data-name="Path 3125" d="M393.187,994.812a3.058,3.058,0,1,1,4.269-.693,3.064,3.064,0,0,1-4.269.693" transform="translate(-382.993 -936.854)" fill="#fff"/>
    <path id="Path_3126" data-name="Path 3126" d="M394.609,995.309a3.339,3.339,0,0,1-2.705-5.293,3.352,3.352,0,0,1,2.71-1.385,3.339,3.339,0,0,1,0,6.679m0-6.117a2.779,2.779,0,0,0-1.629,5.032,2.75,2.75,0,0,0,1.625.523,2.788,2.788,0,0,0,2.257-1.155,2.776,2.776,0,0,0-.632-3.877,2.766,2.766,0,0,0-1.621-.523" transform="translate(-382.629 -936.492)" fill="#f68e24"/>
    <path id="Path_3127" data-name="Path 3127" d="M394.8,995.237a2.2,2.2,0,1,1,3.071-.5,2.2,2.2,0,0,1-3.071.5" transform="translate(-384.101 -937.972)" fill="#fff"/>
    <path id="Path_3128" data-name="Path 3128" d="M395.717,995.572a2.484,2.484,0,0,1-2.013-3.934,2.493,2.493,0,0,1,2.017-1.028,2.484,2.484,0,0,1,2.013,3.934,2.505,2.505,0,0,1-2.017,1.028m0-4.4a1.922,1.922,0,0,0-1.56.8,1.9,1.9,0,0,0-.335,1.429,1.921,1.921,0,0,0,.771,1.25,1.972,1.972,0,0,0,2.679-.436,1.918,1.918,0,0,0-.431-2.679,1.93,1.93,0,0,0-1.124-.362" transform="translate(-383.737 -937.609)" fill="#f68e24"/>
    <path id="Path_3129" data-name="Path 3129" d="M397.864,995.819l.052-.078-3.564-2.57-.061.074a2.2,2.2,0,0,0,3.572,2.575" transform="translate(-384.098 -939.054)" fill="#fff"/>
    <path id="Path_3130" data-name="Path 3130" d="M395.717,996.565h0a2.484,2.484,0,0,1-2.013-3.934l.218-.261.235.126,3.777,2.723-.2.314a2.5,2.5,0,0,1-2.017,1.033m-1.66-3.45a1.922,1.922,0,0,0,.536,2.522,1.927,1.927,0,0,0,2.566-.288Z" transform="translate(-383.737 -938.603)" fill="#f68e24"/>
    <path id="Path_3131" data-name="Path 3131" d="M395.967,993.654a1.41,1.41,0,1,1,.318,1.969,1.413,1.413,0,0,1-.318-1.969" transform="translate(-385.128 -938.998)" fill="#fff"/>
    <path id="Path_3132" data-name="Path 3132" d="M396.741,995.821a1.694,1.694,0,0,1-1.372-2.679,1.734,1.734,0,0,1,2.357-.383,1.691,1.691,0,0,1-.985,3.063m0-2.819a1.143,1.143,0,0,0-.919.466,1.13,1.13,0,0,0,.257,1.577,1.162,1.162,0,0,0,1.577-.253,1.129,1.129,0,0,0-.253-1.577,1.131,1.131,0,0,0-.662-.214" transform="translate(-384.761 -938.651)" fill="#f68e24"/>
    <path id="Path_3133" data-name="Path 3133" d="M380.765,1012.034a3.058,3.058,0,1,1,4.269-.693,3.06,3.06,0,0,1-4.269.693" transform="translate(-375.981 -946.574)" fill="#fff"/>
    <path id="Path_3134" data-name="Path 3134" d="M382.189,1012.528a3.339,3.339,0,1,1,2.71-1.385,3.324,3.324,0,0,1-2.71,1.385m0-6.116a2.781,2.781,0,0,0-1.629,5.036,2.745,2.745,0,0,0,1.621.523,2.788,2.788,0,0,0,2.257-1.154,2.78,2.78,0,0,0-2.248-4.4" transform="translate(-375.62 -946.21)" fill="#f68e24"/>
    <path id="Path_3135" data-name="Path 3135" d="M382.376,1012.444a2.2,2.2,0,1,1,3.071-.5,2.2,2.2,0,0,1-3.071.5" transform="translate(-377.091 -947.681)" fill="#fff"/>
    <path id="Path_3136" data-name="Path 3136" d="M383.3,1012.782a2.484,2.484,0,0,1-2.013-3.934,2.491,2.491,0,0,1,2.013-1.028,2.456,2.456,0,0,1,1.451.47,2.479,2.479,0,0,1-1.451,4.492m0-4.4a1.928,1.928,0,0,0-1.56.8,1.9,1.9,0,0,0-.34,1.429,1.921,1.921,0,0,0,.771,1.25,1.977,1.977,0,0,0,2.684-.436,1.922,1.922,0,0,0-.436-2.679,1.877,1.877,0,0,0-1.12-.362" transform="translate(-376.727 -947.322)" fill="#f68e24"/>
    <path id="Path_3137" data-name="Path 3137" d="M385.454,1013.039a.748.748,0,0,0,.048-.078l-3.564-2.57c-.017.026-.039.048-.057.07a2.2,2.2,0,1,0,3.572,2.579" transform="translate(-377.094 -948.772)" fill="#fff"/>
    <path id="Path_3138" data-name="Path 3138" d="M383.3,1013.775h0a2.484,2.484,0,0,1-2.013-3.934l.218-.261.231.126,3.773,2.723-.135.222a.623.623,0,0,1-.061.1,2.479,2.479,0,0,1-2.013,1.028m-1.656-3.446a1.922,1.922,0,0,0,.536,2.522,1.975,1.975,0,0,0,2.566-.288Z" transform="translate(-376.727 -948.315)" fill="#f68e24"/>
    <path id="Path_3139" data-name="Path 3139" d="M383.547,1010.864a1.409,1.409,0,1,1,.318,1.965,1.412,1.412,0,0,1-.318-1.965" transform="translate(-378.119 -948.71)" fill="#fff"/>
    <path id="Path_3140" data-name="Path 3140" d="M384.321,1013.033a1.69,1.69,0,0,1-1.372-2.679,1.738,1.738,0,0,1,2.357-.383,1.691,1.691,0,0,1-.985,3.063m0-2.814a1.129,1.129,0,0,0-.667,2.043,1.163,1.163,0,0,0,1.577-.257,1.135,1.135,0,0,0-.257-1.577,1.084,1.084,0,0,0-.654-.209" transform="translate(-377.752 -948.366)" fill="#f68e24"/>
    <path id="Path_3141" data-name="Path 3141" d="M382.88,998.093l.47-.653,1.947,1.407-.47.654Zm2.6,1.873.47-.654,1.947,1.4-.471.653Zm2.6,1.873.47-.653,1.947,1.4-.47.653Zm2.6,1.873.471-.653,1.947,1.407-.471.649Zm2.6,1.873.471-.653,1.947,1.4-.471.653Zm2.6,1.873.47-.653,1.947,1.4-.47.654Zm2.6,1.873.47-.653,1.947,1.4-.471.653Zm2.6,1.873.47-.653,1.947,1.407-.47.653Zm2.6,1.873.471-.653,1.947,1.407-.47.654Zm2.6,1.873.471-.654,1.947,1.407-.47.649Zm2.6,1.873.47-.653,1.947,1.407-.471.649Zm2.6,1.873.47-.654,1.947,1.4-.47.653Zm2.6,1.869.471-.654,1.947,1.407-.47.654Z" transform="translate(-377.892 -941.464)" fill="#fff"/>
    <path id="Path_3142" data-name="Path 3142" d="M415.552,1021.865l-2.4-1.734.8-1.107,2.4,1.734Zm-1.621-1.86,1.494,1.076.144-.2-1.494-1.076Zm-.976-.013-2.4-1.729.8-1.107,2.4,1.734Zm-1.621-1.86,1.494,1.076.144-.2-1.494-1.076Zm-.976-.013-2.4-1.734.8-1.107,2.4,1.734Zm-1.621-1.86,1.494,1.076.144-.2-1.494-1.076Zm-.98-.013-2.4-1.729.8-1.107,2.4,1.734Zm-1.621-1.86,1.494,1.076.144-.2-1.494-1.076Zm-.976-.013-2.4-1.734.8-1.107,2.4,1.734Zm-1.621-1.86,1.494,1.076.144-.2-1.494-1.081Zm-.976-.013-2.4-1.729.8-1.107,2.4,1.734Zm-1.621-1.856,1.494,1.076.144-.2-1.494-1.076Zm-.976-.017-2.4-1.734.8-1.107,2.4,1.734Zm-1.621-1.86,1.494,1.076.144-.2-1.494-1.076Zm-.976-.013-2.4-1.734.8-1.107,2.4,1.734Zm-1.621-1.856,1.494,1.076.144-.2L395.9,1006.7Zm-.976-.017-2.4-1.734.8-1.106,2.4,1.734Zm-1.621-1.856,1.494,1.076.144-.2-1.494-1.076Zm-.976-.017-2.4-1.734.8-1.107,2.4,1.734Zm-1.621-1.856,1.494,1.076.144-.2-1.494-1.076Zm-.976-.013-2.4-1.734.8-1.107,2.4,1.734Zm-1.621-1.86,1.494,1.076.144-.2-1.494-1.076Zm-.976-.013-2.4-1.734.8-1.107,2.4,1.734Zm-1.621-1.86,1.494,1.076.144-.2-1.494-1.076Zm-.976-.013-2.4-1.734.8-1.107,2.4,1.734Zm-1.621-1.86,1.494,1.076.144-.2-1.494-1.076Z" transform="translate(-377.39 -940.962)" fill="#be722c"/>
    <path id="Path_3143" data-name="Path 3143" d="M457.654,1000.033c8.508,4.674,12.529,16.846,9.41,29.463-1.045,4.226-5.541,13.161-15.06,16.711-3.973,1.481-7.624,1.455-10.856-.07-5.659-2.67-7.89-8.983-7.981-9.249l2.492-.858c.017.052,1.969,5.546,6.63,7.733a11.074,11.074,0,0,0,8.8-.026c10.612-3.956,13.4-14.764,13.422-14.873,3.041-12.285-1.172-24.021-9.811-27.3-12.172-4.626-21.138,8.1-21.516,8.652l-2.169-1.494c.1-.152,10.5-14.986,24.623-9.623a17.37,17.37,0,0,1,2.021.937" transform="translate(-405.054 -941.74)" fill="#fff"/>
    <path id="Path_3144" data-name="Path 3144" d="M445.872,1047.229a12.441,12.441,0,0,1-5.354-1.189c-5.82-2.744-8.038-9.144-8.129-9.414l-.087-.266,3.019-1.041.091.266c.017.052,1.934,5.432,6.487,7.572a10.841,10.841,0,0,0,8.578-.035c10.482-3.908,13.222-14.568,13.248-14.677,3.006-12.15-1.137-23.743-9.641-26.971a14.771,14.771,0,0,0-5.254-.993c-9.231,0-15.661,9.149-15.932,9.541l-.157.231-2.631-1.808.157-.231c.074-.109,7.68-10.913,18.659-10.913a17.673,17.673,0,0,1,6.3,1.189,15.812,15.812,0,0,1,2.061.954c8.765,4.818,12.69,17.06,9.545,29.776-1.059,4.278-5.6,13.313-15.234,16.907a16.649,16.649,0,0,1-5.72,1.1m-12.856-10.521c.479,1.229,2.779,6.487,7.737,8.826a13.381,13.381,0,0,0,10.643.061c9.414-3.511,13.854-12.337,14.886-16.515,3.084-12.468-.728-24.457-9.271-29.149a15.568,15.568,0,0,0-1.991-.919,17.15,17.15,0,0,0-6.1-1.15c-9.767,0-16.877,8.9-18.031,10.442l1.708,1.176c1.1-1.5,7.41-9.554,16.232-9.554a15.308,15.308,0,0,1,5.454,1.028c8.765,3.328,13.056,15.208,9.985,27.629-.026.109-2.779,11.03-13.6,15.069a11.4,11.4,0,0,1-9.013.017c-4.208-1.978-6.225-6.5-6.678-7.632Z" transform="translate(-404.546 -941.385)" fill="#f68e24"/>
    <path id="Path_3145" data-name="Path 3145" d="M395.413,1056.262l-1.843-.122-.932,14.411c-.257,3.956,2.47,6.905,6.626,7.175l.118-1.843c-2.409-.157-5.136-1.616-4.905-5.219Z" transform="translate(-383.39 -974.592)" fill="#fff"/>
    <path id="Path_3146" data-name="Path 3146" d="M399.174,1077.649l-.279-.018c-4.322-.279-7.153-3.354-6.888-7.471l.95-14.69,2.4.157-.95,14.69c-.218,3.394,2.366,4.77,4.644,4.918l.279.018Zm-5.694-21.586-.915,14.132c-.24,3.7,2.248,6.487,6.086,6.857l.083-1.285c-2.461-.257-5.123-1.825-4.884-5.489l.915-14.128Z" transform="translate(-383.033 -974.213)" fill="#f68e24"/>
    <path id="Path_3147" data-name="Path 3147" d="M411,1099.791l-.192,2.975-3.977.257.261-4Z" transform="translate(-391.408 -998.791)" fill="#fff"/>
    <path id="Path_3148" data-name="Path 3148" d="M406.14,1102.89l.3-4.64,4.465.88-.222,3.463Zm.819-3.964-.218,3.368,3.411-.222.161-2.483Z" transform="translate(-391.019 -998.357)" fill="#f68e24"/>
    <path id="Path_3149" data-name="Path 3149" d="M398.4,1070.18l1.089,1.494-11.667,8.513c-3.2,2.335-7.153,1.62-9.61-1.747l1.49-1.089c1.425,1.947,4.117,3.468,7.031,1.342Z" transform="translate(-375.256 -982.515)" fill="#fff"/>
    <path id="Path_3150" data-name="Path 3150" d="M383.336,1081.337a7.329,7.329,0,0,1-5.851-3.224l-.166-.227,1.943-1.416.166.226a5.128,5.128,0,0,0,3.921,2.257h0a4.592,4.592,0,0,0,2.718-.976l11.889-8.678,1.42,1.943-11.893,8.678a7.052,7.052,0,0,1-4.147,1.416M378.1,1078a6.617,6.617,0,0,0,5.232,2.771,6.482,6.482,0,0,0,3.821-1.311l11.44-8.351-.758-1.037-11.44,8.352a5.148,5.148,0,0,1-3.05,1.085h0a5.456,5.456,0,0,1-4.2-2.266Z" transform="translate(-374.754 -982.018)" fill="#f68e24"/>
    <path id="Path_3151" data-name="Path 3151" d="M374.669,1079.31l-2.409,1.76,1.917,3.494,3.237-2.365Z" transform="translate(-371.898 -987.668)" fill="#fff"/>
    <path id="Path_3152" data-name="Path 3152" d="M373.613,1084.5l-2.183-3.991,2.8-2.047,3.137,3.3Zm-1.455-3.829,1.642,3,2.723-1.987-2.357-2.479Z" transform="translate(-371.43 -987.188)" fill="#f68e24"/>
    <path id="Path_3153" data-name="Path 3153" d="M409.722,1036.483c4.6,2.527,6.63,7.707,4.522,11.549l-.924-.51c1.83-3.328-.013-7.868-4.108-10.116s-8.913-1.372-10.739,1.956l-.924-.51c2.108-3.834,7.572-4.9,12.172-2.37" transform="translate(-386.171 -962.724)" fill="#fff"/>
    <path id="Path_3154" data-name="Path 3154" d="M413.866,1048.049l-1.416-.78.135-.244c1.756-3.193-.039-7.559-3.995-9.732a9.561,9.561,0,0,0-4.579-1.211,6.365,6.365,0,0,0-5.781,3.058l-.135.244-1.416-.775.135-.248a7.969,7.969,0,0,1,7.206-3.89,11.176,11.176,0,0,1,5.345,1.407,10.77,10.77,0,0,1,4.905,5.428,7.577,7.577,0,0,1-.27,6.5Zm-.658-1,.436.24a7.058,7.058,0,0,0,.109-5.777,10.225,10.225,0,0,0-4.653-5.141,10.6,10.6,0,0,0-5.075-1.337,7.474,7.474,0,0,0-6.574,3.359l.431.24a6.982,6.982,0,0,1,6.134-3.106,10.141,10.141,0,0,1,4.849,1.281c4.121,2.266,6.025,6.8,4.343,10.242" transform="translate(-385.68 -962.362)" fill="#f68e24"/>
    <path id="Path_3155" data-name="Path 3155" d="M411.38,1021.965c4.5,2.47,4.992,10.665,1.934,18.606l-.122.327-5.929,4.3-1.394-1.921,5.358-3.886c2.435-6.57,1.821-12.6-1.494-14.42s-8.739.9-12.978,6.469l-.405,6.609-2.37-.148.453-7.314.209-.279c5.062-6.835,12.246-10.813,16.737-8.343" transform="translate(-384.156 -954.889)" fill="#fff"/>
    <path id="Path_3156" data-name="Path 3156" d="M406.814,1045.23l-1.721-2.374,5.515-4c2.344-6.387,1.76-12.264-1.394-14a4.5,4.5,0,0,0-2.187-.527c-3.172,0-7.14,2.627-10.381,6.857l-.418,6.8-2.928-.179.475-7.676.261-.349c4.134-5.585,9.606-9.192,13.936-9.192a6.513,6.513,0,0,1,3.163.771c4.474,2.457,5.341,10.429,2.061,18.951l-.152.405Zm-.941-2.248,1.063,1.468,5.637-4.086.1-.248c3.128-8.125,2.352-15.975-1.8-18.258a5.939,5.939,0,0,0-2.9-.7c-4.16,0-9.454,3.52-13.488,8.965l-.161.214-.427,6.948,1.808.113.392-6.412.052-.065c3.35-4.409,7.519-7.145,10.878-7.145a5.04,5.04,0,0,1,2.457.6c3.468,1.908,4.134,7.981,1.621,14.764l-.031.078Z" transform="translate(-383.772 -954.529)" fill="#f68e24"/>
    <rect id="Rectangle_2050" data-name="Rectangle 2050" width="0.793" height="3.163" transform="translate(21.163 88.277) rotate(-36.165)" fill="#fff"/>
    <path id="Path_3157" data-name="Path 3157" d="M421.326,1073.448l-2.2-3.006,1.094-.8,2.2,3.006Zm-1.416-2.888,1.533,2.1.187-.135-1.538-2.1Z" transform="translate(-398.35 -982.21)" fill="#f68e24"/>
    <path id="Path_3158" data-name="Path 3158" d="M396.171,1058.645l-3.158-.2-.052.789,3.158.209Z" transform="translate(-383.581 -975.89)" fill="#fff"/>
    <path id="Path_3159" data-name="Path 3159" d="M395.986,1059.344l-3.716-.244.091-1.351,3.716.244Zm-3.119-.767,2.6.17.017-.231-2.6-.17Z" transform="translate(-383.191 -975.5)" fill="#f68e24"/>
    <path id="Path_3160" data-name="Path 3160" d="M430.408,1021.828l-3.159-1.738-2.849,3.89,4.252,2.335Z" transform="translate(-401.324 -954.247)" fill="#fff"/>
    <path id="Path_3161" data-name="Path 3161" d="M428.254,1026.248l-4.814-2.644,3.185-4.343,3.59,1.973Zm-3.982-2.828,3.694,2.03,1.551-3.964-2.727-1.5Z" transform="translate(-400.782 -953.778)" fill="#ef4c2e"/>
    <path id="Path_3162" data-name="Path 3162" d="M428.263,1077.713a4.847,4.847,0,1,1,1.913,6.583,4.846,4.846,0,0,1-1.913-6.583" transform="translate(-403.165 -985.347)" fill="#fff"/>
    <path id="Path_3163" data-name="Path 3163" d="M432.144,1084.809a5.129,5.129,0,1,1,4.492-2.657,5.095,5.095,0,0,1-4.492,2.657m0-9.7a4.575,4.575,0,1,0,2.191.566,4.567,4.567,0,0,0-2.191-.566" transform="translate(-402.799 -984.981)" fill="#f68e24"/>
    <path id="Path_3164" data-name="Path 3164" d="M435.7,1078.094a3.792,3.792,0,1,1-5.149,1.5,3.8,3.8,0,0,1,5.149-1.5" transform="translate(-404.533 -986.717)" fill="#fff"/>
    <path id="Path_3165" data-name="Path 3165" d="M433.513,1085.127a4.073,4.073,0,0,1,.013-8.146,4.073,4.073,0,1,1-.013,8.146m.013-7.584a3.517,3.517,0,1,0,1.682.436,3.455,3.455,0,0,0-1.682-.436" transform="translate(-404.172 -986.353)" fill="#f68e24"/>
    <g id="Group_3975" data-name="Group 3975" transform="translate(27.602 92.958)">
      <g id="Group_3974" data-name="Group 3974">
        <g id="Group_3972" data-name="Group 3972" clip-path="url(#clip-path-35)">
          <path id="Path_3166" data-name="Path 3166" d="M437.6,1083.154a1.461,1.461,0,1,1-1.987.575,1.467,1.467,0,0,1,1.987-.575" transform="translate(-435.156 -1082.692)" fill="#fff"/>
        </g>
        <g id="Group_3973" data-name="Group 3973" clip-path="url(#clip-path-35)">
          <path id="Path_3167" data-name="Path 3167" d="M436.531,1085.815a1.755,1.755,0,0,1-.836-.213,1.743,1.743,0,0,1,.841-3.272,1.741,1.741,0,0,1,1.525,2.583,1.736,1.736,0,0,1-1.529.9m0-2.927a1.186,1.186,0,0,0-1.041.614,1.185,1.185,0,0,0,.47,1.6,1.216,1.216,0,0,0,1.608-.466,1.187,1.187,0,0,0-.466-1.608,1.259,1.259,0,0,0-.571-.144" transform="translate(-434.789 -1082.33)" fill="#13a1cb"/>
        </g>
      </g>
    </g>
    <path id="Path_3168" data-name="Path 3168" d="M658.182,1019.719c-9.013,0-17.726-8.107-20.828-19.77-1.037-3.908-1.377-13.187,4.783-20.331a12.605,12.605,0,0,1,8.865-4.8c5.8-.357,10.438,3.777,10.63,3.96l-1.642,1.812c-.039-.035-4.082-3.629-8.857-3.328a10.269,10.269,0,0,0-7.145,3.956c-6.866,7.964-4.3,18.005-4.274,18.105,3.019,11.353,11.693,19.02,20.192,17.831,11.976-1.677,13.579-16.049,13.64-16.659l2.435.244c-.017.17-1.847,16.894-15.735,18.842a16.4,16.4,0,0,1-2.065.135" transform="translate(-521.172 -928.687)" fill="#6dc2cb"/>
    <path id="Path_3169" data-name="Path 3169" d="M676.36,1002.19h0l-1.22-.122c-.061.61-1.664,14.982-13.64,16.659-8.5,1.189-17.173-6.474-20.192-17.831-.026-.1-2.592-10.142,4.274-18.105a10.27,10.27,0,0,1,7.145-3.956c4.77-.305,8.817,3.293,8.857,3.328l.823-.906s-9.61-8.708-17.748.736c-6.121,7.1-5.332,16.189-4.531,19.216,3.058,11.505,12.067,20.057,21.543,18.728,13.1-1.834,14.69-17.748,14.69-17.748" transform="translate(-522.765 -930.265)" fill="#13a1cb"/>
    <path id="Path_3170" data-name="Path 3170" d="M721.234,971.249l1.551-.728L717.1,958.375c-1.56-3.333-5.1-4.518-8.6-2.875l.728,1.551c2.03-.95,4.9-.98,6.321,2.052Z" transform="translate(-561.657 -917.381)" fill="#9e9e9e"/>
    <path id="Path_3171" data-name="Path 3171" d="M716.8,959.851l5.685,12.142-.776.366-5.685-12.141c-1.42-3.036-4.3-3-6.321-2.052l-.362-.776c2.845-1.333,5.982-.7,7.458,2.461" transform="translate(-562.131 -918.49)" fill="#606060"/>
    <path id="Path_3172" data-name="Path 3172" d="M702.242,958.441l-1.172-2.5,3.119-1.987,1.577,3.372Z" transform="translate(-557.464 -916.92)" fill="#edaf77"/>
    <g id="Group_3978" data-name="Group 3978" transform="translate(144.19 38.716)">
      <g id="Group_3977" data-name="Group 3977">
        <g id="Group_3976" data-name="Group 3976" clip-path="url(#clip-path-37)">
          <path id="Path_3173" data-name="Path 3173" d="M702.41,959.375l3.324-1.555.789,1.686L703,960.626Z" transform="translate(-702.41 -957.82)" fill="#f6d0b1"/>
        </g>
      </g>
    </g>
    <path id="Path_3174" data-name="Path 3174" d="M708.8,971.469l-1.555-.728,5.685-12.146c1.56-3.333,5.1-4.518,8.6-2.875l-.728,1.551c-2.03-.95-4.9-.98-6.321,2.052Z" transform="translate(-560.946 -917.505)" fill="#9e9e9e"/>
    <path id="Path_3175" data-name="Path 3175" d="M714.715,960.069l-5.685,12.141.775.366,5.685-12.141c1.42-3.032,4.291-3,6.321-2.052l.362-.775c-2.845-1.333-5.977-.7-7.458,2.461" transform="translate(-561.956 -918.613)" fill="#606060"/>
    <path id="Path_3176" data-name="Path 3176" d="M740.214,958.651l1.172-2.505-3.119-1.986-1.577,3.372Z" transform="translate(-577.566 -917.039)" fill="#edaf77"/>
    <g id="Group_3981" data-name="Group 3981" transform="translate(159.124 38.807)">
      <g id="Group_3980" data-name="Group 3980">
        <g id="Group_3979" data-name="Group 3979" clip-path="url(#clip-path-38)">
          <path id="Path_3177" data-name="Path 3177" d="M740.8,959.585l-3.324-1.555-.788,1.686,3.524,1.12Z" transform="translate(-736.69 -958.03)" fill="#f6d0b1"/>
        </g>
      </g>
    </g>
    <path id="Path_3178" data-name="Path 3178" d="M712.864,1009.656c-4.875,0-8.844-3.307-8.844-7.376H705c0,3.525,3.529,6.4,7.863,6.4s7.863-2.866,7.863-6.4h.98c0,4.069-3.969,7.376-8.844,7.376" transform="translate(-559.129 -944.195)" fill="#606060"/>
    <path id="Path_3179" data-name="Path 3179" d="M713.507,1009.163c4.614,0,8.356-3.08,8.356-6.883h-.488c0,3.525-3.529,6.4-7.863,6.4s-7.864-2.866-7.864-6.4h-.488c-.009,3.8,3.734,6.883,8.347,6.883" transform="translate(-559.772 -944.195)" fill="#9e9e9e"/>
    <path id="Path_3180" data-name="Path 3180" d="M711.447,1008.58c-4.762,0-8.831-6.448-9.894-14.276l-.044-.322,2.9-6.151,2,.941-2.623,5.559c.958,6.43,4.152,11.07,7.663,11.07s6.709-4.635,7.663-11.07l-2.623-5.559,1.991-.941,2.9,6.151-.044.322c-1.063,7.833-5.128,14.276-9.889,14.276" transform="translate(-557.712 -936.041)" fill="#f68e24"/>
    <path id="Path_3181" data-name="Path 3181" d="M712.92,1007.107c4.265,0,7.842-5.258,8.8-12.342l-2.762-5.855-1,.47,2.623,5.559c-.959,6.43-4.152,11.07-7.663,11.07s-6.709-4.635-7.663-11.07l2.622-5.559-1-.47-2.762,5.855c.959,7.084,4.535,12.342,8.8,12.342" transform="translate(-559.185 -936.65)" fill="#d76d27"/>
    <path id="Path_3182" data-name="Path 3182" d="M709.7,988.682l-2.658-1.246.309-.667,2.662,1.242Z" transform="translate(-560.833 -935.442)" fill="#c23827"/>
    <path id="Path_3183" data-name="Path 3183" d="M735.159,988.682l2.662-1.246-.309-.667-2.662,1.242Z" transform="translate(-576.528 -935.442)" fill="#c23827"/>
    <path id="Path_3184" data-name="Path 3184" d="M719.579,1030.679h3.346l.579-4.439H719Z" transform="translate(-567.583 -957.717)" fill="#9e9e9e"/>
    <path id="Path_3185" data-name="Path 3185" d="M724.17,1030.679h1.673l.579-4.439H724.17Z" transform="translate(-570.5 -957.717)" fill="#606060"/>
    <path id="Path_3186" data-name="Path 3186" d="M690.67,980.21a4.5,4.5,0,1,1-4.5-4.5,4.5,4.5,0,0,1,4.5,4.5" transform="translate(-546.515 -929.201)" fill="#606060"/>
    <path id="Path_3187" data-name="Path 3187" d="M687.44,985a3.52,3.52,0,1,1,3.52-3.52,3.521,3.521,0,0,1-3.52,3.52" transform="translate(-547.785 -930.47)" fill="#edaf77"/>
    <g id="Group_3984" data-name="Group 3984" transform="translate(138.296 49.65)">
      <g id="Group_3983" data-name="Group 3983">
        <g id="Group_3982" data-name="Group 3982" clip-path="url(#clip-path-39)">
          <path id="Path_3188" data-name="Path 3188" d="M690.239,985.638a1.359,1.359,0,1,1,1.359-1.359,1.361,1.361,0,0,1-1.359,1.359" transform="translate(-688.88 -982.92)" fill="#f6d0b1"/>
        </g>
      </g>
    </g>
    <path id="Path_3189" data-name="Path 3189" d="M507.3,931.529A49.729,49.729,0,1,1,457.573,881.8,49.728,49.728,0,0,1,507.3,931.529" transform="translate(-391.978 -876.202)" fill="#f68e24"/>
    <g id="Group_4010" data-name="Group 4010" transform="translate(15.866 5.598)">
      <g id="Group_3985" data-name="Group 3985" clip-path="url(#clip-path-40)">
        <path id="Path_3190" data-name="Path 3190" d="M516.988,907.295c0,12.865-7.589,16.18-16.947,16.18s-16.951-3.311-16.951-16.18,7.589-19.025,16.951-19.025,16.947,6.16,16.947,19.025" transform="translate(-450.312 -885.451)" fill="#582512"/>
      </g>
      <g id="Group_3986" data-name="Group 3986" clip-path="url(#clip-path-40)">
        <rect id="Rectangle_2056" data-name="Rectangle 2056" width="18.193" height="15.03" transform="translate(40.628 40.872)" fill="#edaf77"/>
      </g>
      <g id="Group_3987" data-name="Group 3987" clip-path="url(#clip-path-40)">
        <path id="Path_3193" data-name="Path 3193" d="M512.944,1048.168V1010.2A14.279,14.279,0,0,0,498.7,995.96H465.951A14.285,14.285,0,0,0,451.71,1010.2v37.971Z" transform="translate(-432.603 -946.227)" fill="#f68e24"/>
      </g>
      <g id="Group_3988" data-name="Group 3988" clip-path="url(#clip-path-40)">
        <path id="Path_3195" data-name="Path 3195" d="M520.552,1003.155l-4.888-6.735-4.884,6.735,4.034,5.568-4.034,31,4.884,7.524,4.888-7.524-4.034-31Z" transform="translate(-465.939 -946.486)" fill="#13a1cb"/>
      </g>
      <g id="Group_3989" data-name="Group 3989" clip-path="url(#clip-path-40)">
        <path id="Path_3197" data-name="Path 3197" d="M552.607,1048.168V1010.2a14.279,14.279,0,0,0-14.241-14.237H534.3l-12.311,36.864v15.348h30.617Z" transform="translate(-472.265 -946.227)" fill="#fff"/>
      </g>
      <g id="Group_3990" data-name="Group 3990" clip-path="url(#clip-path-40)">
        <path id="Path_3199" data-name="Path 3199" d="M537.74,1014.784l-2.692-4.587,5.855-2.056-1.821-12.163c-.235-.013-.466-.017-.706-.017h-4.065L522,1032.824v15.344h1.716Z" transform="translate(-472.271 -946.227)" fill="#fff"/>
      </g>
      <g id="Group_3991" data-name="Group 3991" clip-path="url(#clip-path-40)">
        <path id="Path_3201" data-name="Path 3201" d="M451.72,1048.168V1010.2a14.279,14.279,0,0,1,14.241-14.237h4.069l12.307,36.864v15.348H451.72Z" transform="translate(-432.608 -946.227)" fill="#fff"/>
      </g>
      <g id="Group_3992" data-name="Group 3992" clip-path="url(#clip-path-40)">
        <path id="Path_3203" data-name="Path 3203" d="M481.773,1014.784l2.692-4.587-5.855-2.056,1.821-12.163c.235-.013.471-.017.706-.017h4.069l12.307,36.864v15.344H495.8Z" transform="translate(-447.784 -946.227)" fill="#fff"/>
      </g>
      <g id="Group_3993" data-name="Group 3993" clip-path="url(#clip-path-40)">
        <path id="Path_3205" data-name="Path 3205" d="M517.6,918.831c0,11.362-6.657,20.567-14.869,20.567s-14.873-9.205-14.873-20.567,6.657-20.571,14.873-20.571,14.869,9.21,14.869,20.571" transform="translate(-453.004 -891.089)" fill="#fcc78c"/>
      </g>
      <g id="Group_3994" data-name="Group 3994" clip-path="url(#clip-path-40)">
        <path id="Path_3207" data-name="Path 3207" d="M497.138,988.88l-2.928,3.084,7.515,8.621,4.587-8.543Z" transform="translate(-456.588 -942.231)" fill="#d1d1d1"/>
      </g>
      <g id="Group_3995" data-name="Group 3995" clip-path="url(#clip-path-40)">
        <path id="Path_3209" data-name="Path 3209" d="M531.169,988.88l2.928,3.084-7.515,8.621-4.592-8.543Z" transform="translate(-472.265 -942.231)" fill="#d1d1d1"/>
      </g>
      <g id="Group_3996" data-name="Group 3996" clip-path="url(#clip-path-40)">
        <path id="Path_3211" data-name="Path 3211" d="M498.811,898.734c6.051,12.581,24.566,5.7,24.566,5.7l-3.681-7-8.072-5.341-10.917,3.2s-2.605,1.425-1.9,3.442" transform="translate(-459.115 -887.607)" fill="#582512"/>
      </g>
      <g id="Group_3997" data-name="Group 3997" clip-path="url(#clip-path-40)">
        <path id="Path_3213" data-name="Path 3213" d="M550,1034.567a4.117,4.117,0,1,1-4.117-4.117,4.115,4.115,0,0,1,4.117,4.117" transform="translate(-483.428 -965.691)" fill="#c23827"/>
      </g>
      <g id="Group_3998" data-name="Group 3998" clip-path="url(#clip-path-40)">
        <path id="Path_3215" data-name="Path 3215" d="M550.384,1035.331h-1.891v-1.891h-1.843v1.891H544.76v1.838h1.891v1.9h1.843v-1.9h1.891Z" transform="translate(-485.116 -967.379)" fill="#e8e7e7"/>
      </g>
      <g id="Group_3999" data-name="Group 3999" clip-path="url(#clip-path-40)">
        <path id="Path_3217" data-name="Path 3217" d="M558.2,1062.188a1.427,1.427,0,0,1-1.42,1.424H543.484a1.431,1.431,0,0,1-1.425-1.424V1055.3a1.428,1.428,0,0,1,1.425-1.425h13.292a1.427,1.427,0,0,1,1.42,1.425Z" transform="translate(-483.592 -978.914)" fill="#9e9e9e"/>
      </g>
      <g id="Group_4000" data-name="Group 4000" clip-path="url(#clip-path-40)">
        <path id="Path_3219" data-name="Path 3219" d="M544.7,1063.893a.479.479,0,0,1-.475-.475v-6.883a.482.482,0,0,1,.475-.475H558a.485.485,0,0,1,.475.475v6.883a.482.482,0,0,1-.475.475Z" transform="translate(-484.817 -980.144)" fill="#e8e7e7"/>
      </g>
      <g id="Group_4001" data-name="Group 4001" clip-path="url(#clip-path-40)">
        <rect id="Rectangle_2057" data-name="Rectangle 2057" width="1.542" height="3.799" transform="translate(65.765 73.306)" fill="#606060"/>
      </g>
      <g id="Group_4002" data-name="Group 4002" clip-path="url(#clip-path-40)">
        <rect id="Rectangle_2058" data-name="Rectangle 2058" width="12.102" height="0.871" transform="translate(60.485 78.451)" fill="#9e9e9e"/>
      </g>
      <g id="Group_4003" data-name="Group 4003" clip-path="url(#clip-path-40)">
        <rect id="Rectangle_2059" data-name="Rectangle 2059" width="12.102" height="0.871" transform="translate(60.485 80.821)" fill="#9e9e9e"/>
      </g>
    </g>
    <path id="Path_3228" data-name="Path 3228" d="M637.782,954.224a1.824,1.824,0,0,1-1.817,1.817H599.807a1.824,1.824,0,0,1-1.817-1.817V906.377a1.824,1.824,0,0,1,1.817-1.817h36.158a1.824,1.824,0,0,1,1.817,1.817Z" transform="translate(-499.29 -889.047)" fill="#13a1cb"/>
    <g id="Group_4013" data-name="Group 4013" transform="translate(100.155 15.513)">
      <g id="Group_4012" data-name="Group 4012">
        <g id="Group_4011" data-name="Group 4011" clip-path="url(#clip-path-62)">
          <path id="Path_3229" data-name="Path 3229" d="M637.84,904.56H601.682a1.664,1.664,0,0,0-.362.039v49.624a.366.366,0,0,0,.362.362H637.84a.366.366,0,0,0,.362-.362V904.6a1.608,1.608,0,0,0-.362-.039" transform="translate(-601.324 -904.56)" fill="#d7d7d7"/>
        </g>
      </g>
    </g>
    <rect id="Rectangle_2063" data-name="Rectangle 2063" width="33.309" height="43.512" transform="translate(101.941 20.815)" fill="#fff"/>
    <path id="Path_3230" data-name="Path 3230" d="M668.529,924.69a3.32,3.32,0,1,1-3.32-3.32,3.319,3.319,0,0,1,3.32,3.32" transform="translate(-535.353 -898.533)" fill="#ef4c2e"/>
    <path id="Path_3231" data-name="Path 3231" d="M668.845,925.315h-1.529V923.79h-1.481v1.525H664.31V926.8h1.525v1.525h1.481V926.8h1.529Z" transform="translate(-536.718 -899.899)" fill="#fff"/>
    <path id="Path_3232" data-name="Path 3232" d="M616.722,944.9H612.27V940.45h4.452ZM613,944.175h3v-3h-3Z" transform="translate(-507.349 -909.301)" fill="#606060"/>
    <rect id="Rectangle_2064" data-name="Rectangle 2064" width="20.985" height="1.455" transform="translate(110.92 32.647)" fill="#9e9e9e"/>
    <path id="Path_3233" data-name="Path 3233" d="M616.722,958.242H612.27V953.79h4.452ZM613,957.515h3v-3h-3Z" transform="translate(-507.349 -916.83)" fill="#606060"/>
    <rect id="Rectangle_2065" data-name="Rectangle 2065" width="20.985" height="1.455" transform="translate(110.92 38.459)" fill="#9e9e9e"/>
    <path id="Path_3234" data-name="Path 3234" d="M616.722,971.592H612.27V967.14h4.452ZM613,970.865h3v-3h-3Z" transform="translate(-507.349 -924.364)" fill="#606060"/>
    <rect id="Rectangle_2066" data-name="Rectangle 2066" width="20.985" height="1.451" transform="translate(110.92 44.275)" fill="#9e9e9e"/>
    <path id="Path_3235" data-name="Path 3235" d="M616.722,984.932H612.27V980.48h4.452ZM613,984.2h3v-3h-3Z" transform="translate(-507.349 -931.893)" fill="#606060"/>
    <rect id="Rectangle_2067" data-name="Rectangle 2067" width="20.985" height="1.455" transform="translate(110.92 50.086)" fill="#9e9e9e"/>
    <path id="Path_3236" data-name="Path 3236" d="M616.722,998.282H612.27V993.83h4.452ZM613,997.555h3v-3h-3Z" transform="translate(-507.349 -939.427)" fill="#606060"/>
    <rect id="Rectangle_2068" data-name="Rectangle 2068" width="20.985" height="1.455" transform="translate(110.92 55.902)" fill="#9e9e9e"/>
    <path id="Path_3237" data-name="Path 3237" d="M640.707,909.795c0,.932-1.682,1.695-3.738,1.695H624.458c-2.056,0-3.738-.762-3.738-1.695s1.682-1.695,3.738-1.695h12.512c2.052,0,3.738.762,3.738,1.695" transform="translate(-512.118 -891.044)" fill="#9e9e9e"/>
    <path id="Path_3238" data-name="Path 3238" d="M625.025,910.743a.963.963,0,1,1-.963-.963.96.96,0,0,1,.963.963" transform="translate(-513.461 -891.992)" fill="#606060"/>
    <path id="Path_3239" data-name="Path 3239" d="M625.186,911.448a.418.418,0,1,1-.418-.418.422.422,0,0,1,.418.418" transform="translate(-514.167 -892.698)" fill="#9e9e9e"/>
    <path id="Path_3240" data-name="Path 3240" d="M661.725,910.743a.963.963,0,1,1-.963-.963.96.96,0,0,1,.963.963" transform="translate(-534.173 -891.992)" fill="#606060"/>
    <path id="Path_3241" data-name="Path 3241" d="M661.886,911.448a.418.418,0,1,1-.418-.418.422.422,0,0,1,.418.418" transform="translate(-534.878 -892.698)" fill="#9e9e9e"/>
    <path id="Path_3242" data-name="Path 3242" d="M642.873,904.36a2.655,2.655,0,0,0-5.262,0Z" transform="translate(-521.65 -887.636)" fill="#d1d1d1"/>
    <rect id="Rectangle_2069" data-name="Rectangle 2069" width="12.899" height="4.661" transform="translate(112.144 16.424)" fill="#9e9e9e"/>
    <rect id="Rectangle_2070" data-name="Rectangle 2070" width="12.899" height="1.046" transform="translate(112.144 17.966)" fill="#d1d1d1"/>
    <g id="Group_4016" data-name="Group 4016" transform="translate(112.144 19.691)">
      <g id="Group_4015" data-name="Group 4015">
        <g id="Group_4014" data-name="Group 4014" clip-path="url(#clip-path-63)">
          <rect id="Rectangle_2071" data-name="Rectangle 2071" width="12.899" height="1.394" fill="#d2d2d2"/>
        </g>
      </g>
    </g>
    <path id="Path_3243" data-name="Path 3243" d="M616.821,954.817l-.667-.667-1.564,1.568-1.568-1.568-.662.667,1.568,1.564-1.568,1.568.662.667,1.568-1.568,1.564,1.568.667-.667-1.568-1.568Z" transform="translate(-507.4 -917.033)" fill="#c23827"/>
    <path id="Path_3244" data-name="Path 3244" d="M613.666,971.768l-1.316-1.917.414-.558.793,1.067,2.622-3.071.636.3Z" transform="translate(-507.394 -924.449)" fill="#13a1cb"/>
    <path id="Path_3245" data-name="Path 3245" d="M662.249,1009.38c-.344-.031.179-2.1.179-2.1a.878.878,0,0,1,.048-.166,1.968,1.968,0,0,0-.009-.558,1.039,1.039,0,0,0-.087.118,3.336,3.336,0,0,0-.318.579,2.583,2.583,0,0,1-.091,1.211c-.113.222-.065.257-.383.3s-.449-.327-.449-.327a2.917,2.917,0,0,1,.152-1.29c-.026-.209-.057-.414-.091-.584a2.358,2.358,0,0,0-.531.98l-.758,0a2.824,2.824,0,0,1,.893-1.621.862.862,0,0,1,.714-.231.644.644,0,0,1,.157.078.445.445,0,0,1,.118.131,1.443,1.443,0,0,1,.07.2,1.472,1.472,0,0,1,.989-.436.4.4,0,0,1,.292.3c.022.122.044.24.057.349a1.336,1.336,0,0,1,.81-.235.816.816,0,0,1,.632.492.015.015,0,0,1,0,.009,1.1,1.1,0,0,0,.222-.148,1.243,1.243,0,0,1,.8-.331,1.034,1.034,0,0,1,.37.074.1.1,0,0,0,.044.017,1.529,1.529,0,0,0,.527,0c.109-.013.222-.022.344-.026l.031.754c-.1,0-.2.013-.292.022a2.134,2.134,0,0,1-.775-.017.639.639,0,0,1-.17-.057.132.132,0,0,0-.07-.013.558.558,0,0,0-.34.166,1.433,1.433,0,0,1-.514.292.666.666,0,0,1-.845-.4.6.6,0,0,0-.061-.1,1.21,1.21,0,0,0-.706.505.842.842,0,0,1-.048.148c-.009.009-.566,1.939-.91,1.908" transform="translate(-534.235 -946.107)" fill="#13a1cb"/>
    <path id="Path_3247" data-name="Path 3247" d="M424.869,928.982a14.914,14.914,0,1,1-14.917-14.912,14.916,14.916,0,0,1,14.917,14.912" transform="translate(-384.754 -894.414)" fill="#5cc7d7"/>
    <path id="Path_3248" data-name="Path 3248" d="M429.28,914.08V943.9a14.912,14.912,0,0,0,0-29.824" transform="translate(-404.078 -894.419)" fill="#13a1cb"/>
    <path id="Path_3249" data-name="Path 3249" d="M426.269,931.777h-6.861V924.92h-6.661v6.857H405.89v6.661h6.857V945.3h6.661v-6.857h6.861Z" transform="translate(-390.878 -900.537)" fill="#fff"/>
    <path id="Path_3250" data-name="Path 3250" d="M613.666,945.334l-1.316-1.913.414-.557.793,1.067,2.622-3.071.636.3Z" transform="translate(-507.394 -909.533)" fill="#13a1cb"/>
  </g>
  <g id="Group_4025" data-name="Group 4025" transform="translate(103.03 88.702)">
    <g id="Group_4024" data-name="Group 4024">
      <path id="Path_3251" data-name="Path 3251" d="M690.482,1087.211H679.43V1077.4h11.052a2.978,2.978,0,0,1,2.976,2.98v3.851a2.978,2.978,0,0,1-2.976,2.98m-10.425-.623h10.429a2.358,2.358,0,0,0,2.357-2.353v-3.851a2.359,2.359,0,0,0-2.357-2.357H680.057Z" transform="translate(-648.281 -1075.292)" fill="#ef4c2e"/>
      <g id="Group_4023" data-name="Group 4023">
        <path id="Path_3252" data-name="Path 3252" d="M642.15,1087.041h28.186a2.678,2.678,0,0,0,2.67-2.666v-5.629a2.672,2.672,0,0,0-2.666-2.666H642.154v10.961Z" transform="translate(-627.242 -1074.547)" fill="#fff"/>
        <path id="Path_3253" data-name="Path 3253" d="M669.936,1086.948h-28.5V1075.36h28.5a2.984,2.984,0,0,1,2.98,2.98v5.628a2.99,2.99,0,0,1-2.98,2.98m-27.877-.623h27.873a2.361,2.361,0,0,0,2.357-2.357v-5.628a2.358,2.358,0,0,0-2.357-2.357H642.059Z" transform="translate(-626.841 -1074.14)" fill="#f68e24"/>
        <path id="Path_3254" data-name="Path 3254" d="M642.15,1087.3h27.3a2.672,2.672,0,0,0,2.666-2.666v-3.851a2.681,2.681,0,0,0-2.666-2.671h-27.3Z" transform="translate(-627.242 -1075.692)" fill="#fff"/>
        <path id="Path_3255" data-name="Path 3255" d="M669.037,1087.211H641.43V1077.4h27.607a2.977,2.977,0,0,1,2.975,2.98v3.851a2.978,2.978,0,0,1-2.975,2.98m-26.984-.623h26.984a2.358,2.358,0,0,0,2.357-2.353v-3.851a2.358,2.358,0,0,0-2.357-2.357H642.053Z" transform="translate(-626.836 -1075.292)" fill="#f68e24"/>
        <path id="Path_3256" data-name="Path 3256" d="M715.83,1088.448v-1.438h14.137l2.3,1.438Zm.623-.815v.192H730.1l-.309-.192Z" transform="translate(-668.824 -1080.715)" fill="#f68e24"/>
        <path id="Path_3257" data-name="Path 3257" d="M711.25,1088.2v-3.111l3.132.24v2.627Zm.627-2.435v1.765l1.886-.148v-1.473Z" transform="translate(-666.239 -1079.631)" fill="#f68e24"/>
        <rect id="Rectangle_2074" data-name="Rectangle 2074" width="29.781" height="6.295" transform="translate(1.311 3.868)" fill="#fff"/>
        <path id="Path_3258" data-name="Path 3258" d="M640.634,1087.638h-30.4v-6.918h30.4Zm-29.781-.623h29.158v-5.672H610.853Z" transform="translate(-609.228 -1077.165)" fill="#f68e24"/>
        <rect id="Rectangle_2075" data-name="Rectangle 2075" width="2.335" height="10.965" transform="translate(0.314 1.533)" fill="#fff"/>
        <path id="Path_3259" data-name="Path 3259" d="M610.888,1086.948H607.93V1075.36h2.954v11.588Zm-2.335-.623h1.712v-10.342h-1.708Z" transform="translate(-607.93 -1074.14)" fill="#f68e24"/>
        <path id="Path_3260" data-name="Path 3260" d="M676.29,1087.211V1077.4h2.958v9.811Zm.623-9.188v8.565h1.712v-8.565Z" transform="translate(-646.509 -1075.292)" fill="#f68e24"/>
        <rect id="Rectangle_2076" data-name="Rectangle 2076" width="2.853" height="13.409" transform="translate(12.904 0.314)" fill="#fff"/>
        <path id="Path_3261" data-name="Path 3261" d="M640.316,1086.592H636.84V1072.56h3.472v14.032Zm-2.853-.623h2.231v-12.786h-2.231Z" transform="translate(-624.245 -1072.56)" fill="#f68e24"/>
        <rect id="Rectangle_2077" data-name="Rectangle 2077" width="0.919" height="13.409" transform="translate(12.904 0.309)" fill="#fff"/>
        <path id="Path_3262" data-name="Path 3262" d="M638.382,1086.592H636.84V1072.56h1.542Zm-.919-.623h.3v-12.786h-.3Z" transform="translate(-624.245 -1072.56)" fill="#f68e24"/>
      </g>
    </g>
    <path id="Path_3263" data-name="Path 3263" d="M680.144,1087.3h10.739a2.672,2.672,0,0,0,2.666-2.666v-3.851a2.681,2.681,0,0,0-2.666-2.671H680.14v9.188Z" transform="translate(-648.682 -1075.692)" fill="#fff"/>
    <path id="Path_3264" data-name="Path 3264" d="M730.276,1087.73H716.54v.815h15.043Z" transform="translate(-669.224 -1081.121)" fill="#fff"/>
    <path id="Path_3265" data-name="Path 3265" d="M714.479,1086.062l-2.509-.192v2.435l2.509-.2Z" transform="translate(-666.645 -1080.072)" fill="#fff"/>
    <rect id="Rectangle_2078" data-name="Rectangle 2078" width="2.335" height="9.188" transform="translate(30.09 2.422)" fill="#fff"/>
  </g>
</svg>
