<svg xmlns="http://www.w3.org/2000/svg" width="19.949" height="18.093" viewBox="0 0 19.949 18.093" fill="#ec7a08"><g id="Warning" transform="translate(-528.974 -950)"><rect id="Rectangle_7" data-name="Rectangle 7" width="1.392" height="1.392" transform="translate(538.253 962.99)"></rect><rect id="Rectangle_8" data-name="Rectangle 8" width="1.392" height="4.176" transform="translate(538.253 956.495)"></rect><path id="Path_9" data-name="Path 9" d="M548.783,966.5l-8.9-15.953a1.071,1.071,0,0,0-1.865,0l-8.9,15.951h0a1.07,1.07,0,0,0,.933,1.6h17.8a1.07,1.07,0,0,0,.933-1.6Zm-1.751.091a.231.231,0,0,1-.2.114h-15.77a.232.232,0,0,1-.2-.344l7.884-14.339a.232.232,0,0,1,.407,0l7.884,14.339a.231.231,0,0,1,0,.23Zm0,0"></path></g></svg>