 <svg
    xmlns="http://www.w3.org/2000/svg"
    width="16.834"
    height="18.093"
    viewBox="0 0 16.834 18.093"
    fill='#a3a1a5'
    >
    <g
      id="Group_10"
      data-name="Group 10"
      transform="translate(-529.696 -949.999)">
      <path
        id="Path_7"
        data-name="Path 7"
        d="M538.527,958.978a4.489,4.489,0,1,1,4.489-4.49,4.489,4.489,0,0,1-4.489,4.49Zm0-7.732a3.242,3.242,0,1,0,3.242,3.242,3.244,3.244,0,0,0-3.242-3.242Zm0,0"
        transform="translate(-0.414)"
      />
      <path
        id="Path_8"
        data-name="Path 8"
        d="M545.907,969.169a.624.624,0,0,1-.623-.623V967a4.47,4.47,0,0,0-4.465-4.465h-5.41A4.47,4.47,0,0,0,530.943,967v1.542a.623.623,0,1,1-1.247,0V967a5.719,5.719,0,0,1,5.712-5.713h5.409A5.72,5.72,0,0,1,546.53,967v1.542a.623.623,0,0,1-.623.623Z"
        transform="translate(0 -1.077)"
      />
    </g>
  </svg>