<svg xmlns="http://www.w3.org/2000/svg" width="61.017" height="58.554" viewBox="0 0 61.017 58.554">
  <g id="Group_4073" data-name="Group 4073" transform="translate(0 0)">
    <path id="Path_3416" data-name="Path 3416" d="M381.66,2052.372c3.246-5.21,6.334-10.177,9.436-15.139,3.193-5.11,6.408-10.2,9.584-15.322,1.468-2.361,1.041-3.128-1.69-3.167a46.765,46.765,0,0,1-5.48-.087c-.732-.1-1.934-1.032-1.939-1.6-.087-7.624,0-15.248.052-22.871,0-.122.161-.24.253-.357,11.575,2.849,21.016,18.31,19.421,31.349C409.032,2043.655,393.248,2052.751,381.66,2052.372Z" transform="translate(-350.456 -1993.83)" fill="#f68e24"/>
    <path id="Path_3417" data-name="Path 3417" d="M339.538,2052.3c-10.3.645-26.5-7.8-29.214-25.86-2.082-13.845,7.31-29.9,19.456-32.582v14.159c0,2.67-.1,5.345.039,8.011.118,2.169-.819,2.866-2.84,2.744-1.594-.1-3.2-.043-4.805-.013-2.605.052-3.032.81-1.647,3.036q8.894,14.272,17.827,28.526C338.715,2050.895,339.05,2051.483,339.538,2052.3Z" transform="translate(-310.034 -1993.847)" fill="#f68e24"/>
    <path id="Path_3418" data-name="Path 3418" d="M368.929,2043.294c0,1.3.048,2.6-.017,3.89a2.578,2.578,0,0,1-2.64,2.627c-1.647.113-2.971-.658-3.08-2.379a70,70,0,0,1-.017-8.225,2.567,2.567,0,0,1,2.954-2.531,2.628,2.628,0,0,1,2.788,2.718C369,2040.694,368.929,2042,368.929,2043.294Zm-1.455.152h.009a19.177,19.177,0,0,0-.065-3.646c-.126-.641-.932-1.146-1.429-1.712-.466.514-1.3,1.006-1.333,1.547a60.936,60.936,0,0,0,0,7.3c.031.519.915.985,1.4,1.472.471-.514,1.237-.967,1.351-1.551A18.141,18.141,0,0,0,367.474,2043.447Z" transform="translate(-339.961 -2018.01)" fill="#f68e24"/>
    <path id="Path_3419" data-name="Path 3419" d="M380.437,2036.889c-2.819,6.809-5.3,13.758-8.194,20.536-.379-.152-.754-.309-1.133-.462,2.732-6.844,5.271-13.766,8.151-20.554C379.653,2036.567,380.045,2036.728,380.437,2036.889Z" transform="translate(-344.502 -2017.86)" fill="#f68e24"/>
    <path id="Path_3420" data-name="Path 3420" d="M392.27,2061.644c0,1.3.048,2.6-.017,3.89a2.579,2.579,0,0,1-2.64,2.627c-1.647.113-2.971-.658-3.08-2.379a70.013,70.013,0,0,1-.017-8.225,2.567,2.567,0,0,1,2.954-2.531,2.628,2.628,0,0,1,2.788,2.718C392.339,2059.048,392.274,2060.35,392.27,2061.644Zm-1.455.157h.009a19.19,19.19,0,0,0-.065-3.647c-.126-.64-.932-1.145-1.429-1.712-.466.514-1.3,1.007-1.333,1.546a60.957,60.957,0,0,0,0,7.3c.031.519.915.984,1.4,1.472.47-.514,1.237-.967,1.351-1.551A17.786,17.786,0,0,0,390.814,2061.8Z" transform="translate(-353.133 -2028.366)" fill="#f68e24"/>
  </g>
</svg>
