<svg xmlns="http://www.w3.org/2000/svg" xmlns:xlink="http://www.w3.org/1999/xlink" width="300" height="104.574" viewBox="0 0 300 104.574">
  <defs>
    <linearGradient id="linear-gradient" x1="0.534" y1="0.159" x2="0.091" y2="0.647" gradientUnits="objectBoundingBox">
      <stop offset="0.04" stop-color="#f68e26"/>
      <stop offset="1" stop-color="#1aa4de"/>
    </linearGradient>
    <linearGradient id="linear-gradient-2" x1="0.524" y1="0.472" x2="0.082" y2="0.96" xlink:href="#linear-gradient"/>
    <linearGradient id="linear-gradient-3" x1="-0.677" y1="2.887" x2="-1.448" y2="4.444" xlink:href="#linear-gradient"/>
    <linearGradient id="linear-gradient-4" x1="-3.268" y1="2.064" x2="-5.78" y2="3.072" xlink:href="#linear-gradient"/>
    <linearGradient id="linear-gradient-5" x1="-2.459" y1="2.53" x2="-4.125" y2="3.666" xlink:href="#linear-gradient"/>
    <linearGradient id="linear-gradient-6" x1="4.724" y1="15.689" x2="3.621" y2="17.973" xlink:href="#linear-gradient"/>
  </defs>
  <g id="Mango_Cancer_Care" data-name="Mango Cancer Care" transform="translate(-0.005 -0.03)">
    <path id="Path_2850" data-name="Path 2850" d="M376.84,207.4h-.3l-3.189,6.432-8.877,15.882-8.9-15.882-3.189-6.432h-.3v30.351H345.83V198.09H353.6l10.843,20.2h.351l10.854-20.2h7.442v39.663H376.84Z" transform="translate(-242.308 -175.054)" fill="#1a1d21"/>
    <path id="Path_2851" data-name="Path 2851" d="M414.631,237.753l-3.646-10.769H395.846l-3.54,10.769H385.63l13.82-39.663h8.239l13.82,39.663ZM403.554,203.99h-.287l-5.858,17.488h12Z" transform="translate(-239.754 -175.054)" fill="#1a1d21"/>
    <path id="Path_2852" data-name="Path 2852" d="M435.028,215.812l-4.465-8.409h-.191v30.351H424.11V198.09h7.325l13.225,21.931,4.465,8.42h.181V198.09h6.262v39.663h-7.3Z" transform="translate(-237.288 -175.054)" fill="#1a1d21"/>
    <path id="Path_2853" data-name="Path 2853" d="M488.122,231.775H487.9a7.729,7.729,0,0,1-3.455,4.784A13.1,13.1,0,0,1,477,238.451a16.712,16.712,0,0,1-6.676-1.329,14.766,14.766,0,0,1-5.315-3.923,18.339,18.339,0,0,1-3.476-6.378,28.309,28.309,0,0,1-1.254-8.834,27.7,27.7,0,0,1,1.276-8.77,18.208,18.208,0,0,1,3.6-6.442,14.776,14.776,0,0,1,5.57-3.944,18.827,18.827,0,0,1,7.25-1.339,17.009,17.009,0,0,1,9.217,2.36,15.861,15.861,0,0,1,5.857,6.548l-5.315,3.072a11,11,0,0,0-17.488-3.253c-1.956,2.009-2.923,4.858-2.923,8.5v6.485c0,3.678.967,6.517,2.923,8.5a10.333,10.333,0,0,0,7.75,3.019,13.248,13.248,0,0,0,3.646-.489,9.481,9.481,0,0,0,3.051-1.414,7.166,7.166,0,0,0,2.126-2.328,6.559,6.559,0,0,0,.787-3.264v-3.072h-8.356v-5.517h14.681v21.145h-5.751Z" transform="translate(-234.925 -175.092)" fill="#1a1d21"/>
    <path id="Path_2854" data-name="Path 2854" d="M515.136,238.428a18.657,18.657,0,0,1-7.165-1.329,14.979,14.979,0,0,1-5.517-3.923,17.913,17.913,0,0,1-3.529-6.379,31.7,31.7,0,0,1,0-17.658,17.88,17.88,0,0,1,3.529-6.378,14.881,14.881,0,0,1,5.517-3.912,19.806,19.806,0,0,1,14.32,0,14.884,14.884,0,0,1,5.5,3.859,18.076,18.076,0,0,1,3.54,6.379,31.959,31.959,0,0,1,0,17.658,18.075,18.075,0,0,1-3.54,6.378,14.978,14.978,0,0,1-5.517,3.923A18.6,18.6,0,0,1,515.136,238.428Zm0-5.709a11.148,11.148,0,0,0,4.252-.8,8.971,8.971,0,0,0,3.306-2.307,10.519,10.519,0,0,0,2.126-3.668,14.81,14.81,0,0,0,.755-4.89v-6.23a14.881,14.881,0,0,0-.755-4.89,10.728,10.728,0,0,0-2.126-3.668,9.076,9.076,0,0,0-3.306-2.3,11.885,11.885,0,0,0-8.558,0,9.048,9.048,0,0,0-3.274,2.3,10.736,10.736,0,0,0-2.126,3.668,14.878,14.878,0,0,0-.755,4.89v6.251a14.807,14.807,0,0,0,.755,4.89,10.545,10.545,0,0,0,2.126,3.668,8.952,8.952,0,0,0,3.274,2.307,11.045,11.045,0,0,0,4.305.8Z" transform="translate(-232.566 -175.09)" fill="#1a1d21"/>
    <path id="Path_2855" data-name="Path 2855" d="M353.529,256.5a8.036,8.036,0,0,1-2.987-.531,5.943,5.943,0,0,1-2.286-1.584,7.335,7.335,0,0,1-1.456-2.636,12.067,12.067,0,0,1-.5-3.636,12.636,12.636,0,0,1,.5-3.689,7.548,7.548,0,0,1,1.456-2.7,6.144,6.144,0,0,1,2.286-1.669,7.633,7.633,0,0,1,2.987-.563,6.857,6.857,0,0,1,3.742.946,6.454,6.454,0,0,1,2.381,2.849l-2.711,1.414a3.742,3.742,0,0,0-1.18-1.775,3.359,3.359,0,0,0-2.232-.68,3.593,3.593,0,0,0-2.828,1.18,4.848,4.848,0,0,0-1.063,3.3v2.594A4.7,4.7,0,0,0,350.7,252.6a3.636,3.636,0,0,0,2.828,1.148,3.508,3.508,0,0,0,2.317-.755,4.433,4.433,0,0,0,1.308-1.86l2.573,1.478a7.262,7.262,0,0,1-2.424,2.87A6.6,6.6,0,0,1,353.529,256.5Z" transform="translate(-242.286 -172.404)" fill="#1a1d21"/>
    <path id="Path_2856" data-name="Path 2856" d="M375.121,256.186,373.771,252h-5.953l-1.318,4.189H363.31l5.613-16.446h3.944l5.57,16.446Zm-4.252-13.618h-.117l-2.126,6.772h4.422Z" transform="translate(-241.196 -172.388)" fill="#1a1d21"/>
    <path id="Path_2857" data-name="Path 2857" d="M387.816,247.745l-1.733-3.412h-.074v11.853H383V239.74h3.476l5.05,8.441,1.733,3.412h.064V239.74h3.008v16.446h-3.487Z" transform="translate(-239.935 -172.388)" fill="#1a1d21"/>
    <path id="Path_2858" data-name="Path 2858" d="M408.969,256.5a8.035,8.035,0,0,1-2.987-.531,5.943,5.943,0,0,1-2.286-1.584,7.332,7.332,0,0,1-1.456-2.636,12.069,12.069,0,0,1-.5-3.636,12.646,12.646,0,0,1,.5-3.689,7.547,7.547,0,0,1,1.456-2.7,6.143,6.143,0,0,1,2.286-1.669,7.632,7.632,0,0,1,2.987-.563,6.857,6.857,0,0,1,3.742.946,6.452,6.452,0,0,1,2.381,2.849l-2.711,1.414a3.742,3.742,0,0,0-1.18-1.775,3.359,3.359,0,0,0-2.232-.68,3.55,3.55,0,0,0-2.817,1.18,4.794,4.794,0,0,0-1.063,3.3v2.594a4.656,4.656,0,0,0,1.063,3.285,3.6,3.6,0,0,0,2.817,1.148,3.487,3.487,0,0,0,2.318-.755,4.338,4.338,0,0,0,1.308-1.86l2.573,1.478a7.262,7.262,0,0,1-2.424,2.87A6.6,6.6,0,0,1,408.969,256.5Z" transform="translate(-238.734 -172.404)" fill="#1a1d21"/>
    <path id="Path_2859" data-name="Path 2859" d="M420.1,256.186V239.74h11.045v2.753h-7.877v3.987h6.963v2.764h-6.963v4.189h7.877v2.753Z" transform="translate(-237.559 -172.388)" fill="#1a1d21"/>
    <path id="Path_2860" data-name="Path 2860" d="M439.989,256.186H436.8V239.74h7.558a5.728,5.728,0,0,1,2.073.351,3.976,3.976,0,0,1,1.541,1.063,4.648,4.648,0,0,1,.989,1.605,5.974,5.974,0,0,1,.351,2.126,5.316,5.316,0,0,1-.787,2.924,4.252,4.252,0,0,1-2.339,1.743l3.434,6.7h-3.529l-3.125-6.378h-2.977Zm4.082-8.972a2.126,2.126,0,0,0,1.446-.478,1.754,1.754,0,0,0,.521-1.371V244.3a1.733,1.733,0,0,0-.521-1.361,2.126,2.126,0,0,0-1.446-.468h-4.082v4.752Z" transform="translate(-236.487 -172.388)" fill="#1a1d21"/>
    <path id="Path_2861" data-name="Path 2861" d="M470.039,256.5a8.143,8.143,0,0,1-3-.532,5.986,5.986,0,0,1-2.275-1.584,7.19,7.19,0,0,1-1.456-2.636,11.7,11.7,0,0,1-.5-3.636,12.292,12.292,0,0,1,.5-3.689,7.443,7.443,0,0,1,1.456-2.7,6.2,6.2,0,0,1,2.275-1.669,7.726,7.726,0,0,1,3-.564,6.877,6.877,0,0,1,3.742.946,6.452,6.452,0,0,1,2.381,2.849l-2.711,1.414a3.743,3.743,0,0,0-1.18-1.775,3.36,3.36,0,0,0-2.232-.68,3.593,3.593,0,0,0-2.828,1.18,4.847,4.847,0,0,0-1.063,3.3v2.594a4.7,4.7,0,0,0,1.063,3.285,3.636,3.636,0,0,0,2.828,1.148,3.508,3.508,0,0,0,2.317-.755,4.434,4.434,0,0,0,1.308-1.86l2.573,1.478a7.441,7.441,0,0,1-2.424,2.87A6.624,6.624,0,0,1,470.039,256.5Z" transform="translate(-234.821 -172.404)" fill="#1a1d21"/>
    <path id="Path_2862" data-name="Path 2862" d="M491.621,256.186,490.281,252h-5.953L483,256.186H479.81l5.613-16.446h3.944l5.528,16.446Zm-4.252-13.618h-.117l-2.126,6.772h4.422Z" transform="translate(-233.693 -172.388)" fill="#1a1d21"/>
    <path id="Path_2863" data-name="Path 2863" d="M502.689,256.186H499.5V239.74h7.569a5.708,5.708,0,0,1,2.062.351,4.019,4.019,0,0,1,1.552,1.063,4.648,4.648,0,0,1,.989,1.605,6.235,6.235,0,0,1,.34,2.126,5.315,5.315,0,0,1-.776,2.923,4.252,4.252,0,0,1-2.339,1.743l3.434,6.7H508.8l-3.125-6.378h-2.987Zm4.082-8.972a2.052,2.052,0,0,0,1.435-.478,1.765,1.765,0,0,0,.531-1.371V244.3a1.733,1.733,0,0,0-.531-1.361,2.126,2.126,0,0,0-1.435-.468h-4.082v4.752Z" transform="translate(-232.451 -172.388)" fill="#1a1d21"/>
    <path id="Path_2864" data-name="Path 2864" d="M517.69,256.186V239.74h11.045v2.753h-7.877v3.987h6.963v2.764h-6.963v4.189h7.877v2.753Z" transform="translate(-231.303 -172.388)" fill="#1a1d21"/>
    <path id="Path_2865" data-name="Path 2865" d="M296.867,232.62l-21.549,44-.074.17-.5-.266A45.113,45.113,0,0,1,314.4,195.566l.51.223-9.334,19.059a39.3,39.3,0,0,0,3.838-2.128c5.113-10.45,8.845-18.091,8.887-18.155l-1.127-.553a47.171,47.171,0,0,0-20.943-4.842,47.715,47.715,0,0,0-21.017,90.53l1.127.553c.159-.309,3.455-7.055,3.455-7.055s8.685-17.719,17.8-36.331Z" transform="translate(-248.55 -175.649)" fill="url(#linear-gradient)"/>
    <path id="Path_2866" data-name="Path 2866" d="M312.559,177.033l-1.127-.553-3.455,7.056-11.067,22.593a37.28,37.28,0,0,0,.287,5.129L312.453,180.1l.085-.16.489.266a45.1,45.1,0,0,1-39.685,80.9l-.51-.234,14.415-29.435h-2.8L269.43,262.168l1.127.553a47.076,47.076,0,0,0,20.943,4.853,47.715,47.715,0,0,0,21.06-90.54Z" transform="translate(-247.233 -176.45)" fill="url(#linear-gradient-2)"/>
    <path id="Path_2867" data-name="Path 2867" d="M315.658,205.43s2.456,3.583-18.636,14.224-31.892,16.531-31.892,16.531l6.123,3.189L267,246.39l40.929-21.644s5.528-2.317,6.262-5.39S317.083,208.162,315.658,205.43Z" transform="translate(-247.505 -174.578)" fill="url(#linear-gradient-3)"/>
    <path id="Path_2868" data-name="Path 2868" d="M297.017,196.43s-4.337,0-.935,23.388,4.848,35.688,4.848,35.688l-6.123-3.189-3.359,7.442-5.794-45.936s-1.276-5.858.819-8.218S293.924,196.845,297.017,196.43Z" transform="translate(-246.234 -175.143)" fill="url(#linear-gradient-4)"/>
    <path id="Path_2869" data-name="Path 2869" d="M309.6,202.58s4.422,2.488,1.69,5.315c.234-.8.723-3.051-2.732-3.7" transform="translate(-244.707 -174.777)" fill="url(#linear-gradient-5)"/>
    <path id="Path_2870" data-name="Path 2870" d="M300.795,197.536s-4.305-2.7-5.475,1.063c.6-.6,2.339-2.126,4.561.638" transform="translate(-245.6 -175.161)" fill="url(#linear-gradient-6)"/>
  </g>
</svg>
